<svg id="_001-pros-and-cons" data-name="001-pros-and-cons" xmlns="http://www.w3.org/2000/svg" viewBox="0 0 126.739 126.738">
  <g id="Group_931" data-name="Group 931" transform="translate(0 0)">
    <g id="Group_930" data-name="Group 930">
      <path id="Path_6567" data-name="Path 6567" d="M110.385.031,17.375,0A17.4,17.4,0,0,0,0,17.376V126.739H96.076V44.022l4.236-2.823,8.03,4.015,8.177-4.088,10.221,5.111V17.376A17.4,17.4,0,0,0,110.385.031Zm-18.4,17.345V122.651H4.088V17.376A13.3,13.3,0,0,1,17.375,4.089h80.8A17.353,17.353,0,0,0,91.987,17.376Zm30.662,22.245-6.133-3.066-8.177,4.088-8.322-4.162-3.942,2.627V17.376a13.287,13.287,0,1,1,26.574,0V39.621Z" transform="translate(0 -0.001)"/>
      <path id="Path_6568" data-name="Path 6568" d="M137.619,72.347l8.776-8.776,8.776,8.776,2.89-2.891-8.776-8.776,8.776-8.775-2.89-2.891-8.776,8.776-8.776-8.776-2.89,2.891,8.775,8.775-8.775,8.776Z" transform="translate(-76.893 -27.975)"/>
      <path id="Path_6569" data-name="Path 6569" d="M57.8,56.7l-3.058-2.719L40.153,70.4l-2.619-3.929-3.4,2.269,5.558,8.336Z" transform="translate(-19.481 -30.807)"/>
      <rect id="Rectangle_1332" data-name="Rectangle 1332" width="32.706" height="4.088" transform="translate(10.221 51.104)"/>
      <rect id="Rectangle_1333" data-name="Rectangle 1333" width="32.706" height="4.088" transform="translate(10.221 61.325)"/>
      <rect id="Rectangle_1334" data-name="Rectangle 1334" width="32.706" height="4.088" transform="translate(10.221 71.546)"/>
      <rect id="Rectangle_1335" data-name="Rectangle 1335" width="32.706" height="4.088" transform="translate(10.221 81.766)"/>
      <rect id="Rectangle_1336" data-name="Rectangle 1336" width="32.706" height="4.088" transform="translate(10.221 91.987)"/>
      <rect id="Rectangle_1337" data-name="Rectangle 1337" width="16.353" height="4.088" transform="translate(10.221 102.208)"/>
      <rect id="Rectangle_1338" data-name="Rectangle 1338" width="32.706" height="4.088" transform="translate(53.148 51.104)"/>
      <rect id="Rectangle_1339" data-name="Rectangle 1339" width="32.706" height="4.088" transform="translate(53.148 61.325)"/>
      <rect id="Rectangle_1340" data-name="Rectangle 1340" width="32.706" height="4.088" transform="translate(53.148 71.546)"/>
      <rect id="Rectangle_1341" data-name="Rectangle 1341" width="24.53" height="4.088" transform="translate(53.148 81.766)"/>
    </g>
  </g>
</svg>
