<svg xmlns="http://www.w3.org/2000/svg" viewBox="0 0 21.815 16.357">
  <defs>
    <style>
      .cls-1 {
        fill: #333;
      }
    </style>
  </defs>
  <path id="envelope" class="cls-1" d="M19.77,4H2.045A2.045,2.045,0,0,0,0,6.045V18.313a2.045,2.045,0,0,0,2.045,2.045H19.77a2.045,2.045,0,0,0,2.045-2.045V6.045A2.045,2.045,0,0,0,19.77,4ZM1.869,18.987l-.5-.5,5.624-5.621.5.5L1.869,18.987Zm18.078,0-5.624-5.621.5-.5,5.624,5.621Zm-8.357-4.543v.46H10.226v-.46L1.366,6.232l.867-.867,8.675,8.041,8.675-8.041.867.867Z" transform="translate(0 -4)"/>
</svg>
