<svg xmlns="http://www.w3.org/2000/svg" xmlns:xlink="http://www.w3.org/1999/xlink" viewBox="0 0 1785 1098.676">
  <defs>
    <style>
      .cls-1, .cls-11, .cls-14 {
        fill: #fff;
      }

      .cls-1 {
        stroke: #707070;
        opacity: 0.136;
      }

      .cls-2 {
        fill: #f90;
      }

      .cls-10, .cls-11, .cls-16, .cls-2, .cls-25, .cls-3, .cls-32, .cls-37 {
        fill-rule: evenodd;
      }

      .cls-4 {
        fill: #ef3a3f;
      }

      .cls-5 {
        fill: #0067b3;
      }

      .cls-6 {
        fill: #fbad18;
      }

      .cls-7 {
        fill: #6ab945;
      }

      .cls-8 {
        fill: #c82027;
      }

      .cls-9 {
        fill: #12393d;
      }

      .cls-10 {
        fill: #ed1c24;
      }

      .cls-12 {
        fill: none;
      }

      .cls-13 {
        fill: #00549e;
      }

      .cls-15 {
        fill: #3b73b9;
      }

      .cls-16 {
        fill: #e81d2c;
      }

      .cls-17 {
        fill: #4285f4;
      }

      .cls-18 {
        fill: #ea4335;
      }

      .cls-19 {
        fill: #fbbc05;
      }

      .cls-20 {
        fill: #34a853;
      }

      .cls-21 {
        fill: #006fba;
      }

      .cls-22 {
        fill: #ffe91d;
      }

      .cls-23 {
        fill: #006bb6;
      }

      .cls-24 {
        fill: #4c83c3;
      }

      .cls-25 {
        fill: #0079bd;
      }

      .cls-26 {
        fill: #ffc425;
      }

      .cls-27 {
        fill: #f25022;
      }

      .cls-28 {
        fill: #80ba01;
      }

      .cls-29 {
        fill: #777;
      }

      .cls-30 {
        fill: #02a4ef;
      }

      .cls-31 {
        fill: #ffb902;
      }

      .cls-32 {
        fill: #806a50;
      }

      .cls-33 {
        clip-path: url(#clip-path);
      }

      .cls-34 {
        fill: #ee3e42;
      }

      .cls-35 {
        fill: #0069aa;
      }

      .cls-36 {
        fill: #023768;
      }

      .cls-37 {
        fill: #ef3e28;
      }

      .cls-38 {
        fill: #034ea2;
      }

      .cls-39 {
        fill: #393939;
        font-size: 64px;
        font-family: SegoeUI, Segoe UI;
      }

      .cls-40 {
        stroke: none;
      }
    </style>
    <clipPath id="clip-path">
      <path id="Path_4857" data-name="Path 4857" d="M81.733,102.366a33.033,33.033,0,1,1,33.033-33.033,33.1,33.1,0,0,1-33.033,33.033Z" transform="translate(-48.7 -36.3)"/>
    </clipPath>
  </defs>
  <g id="Group_1470" data-name="Group 1470" transform="translate(-68 -2860)">
    <g id="Rectangle_1439" data-name="Rectangle 1439" class="cls-1" transform="translate(117.898 2954.363)">
      <rect class="cls-40" width="337.641" height="237.39"/>
      <rect class="cls-12" x="0.5" y="0.5" width="336.641" height="236.39"/>
    </g>
    <g id="Group_1469" data-name="Group 1469">
      <g id="Rectangle_1440" data-name="Rectangle 1440" class="cls-1" transform="translate(455.539 2954.363)">
        <rect class="cls-40" width="337.641" height="237.39"/>
        <rect class="cls-12" x="0.5" y="0.5" width="336.641" height="236.39"/>
      </g>
    </g>
    <g id="Rectangle_1441" data-name="Rectangle 1441" class="cls-1" transform="translate(793.18 2954.363)">
      <rect class="cls-40" width="337.641" height="237.39"/>
      <rect class="cls-12" x="0.5" y="0.5" width="336.641" height="236.39"/>
    </g>
    <g id="Rectangle_1442" data-name="Rectangle 1442" class="cls-1" transform="translate(1130.82 2954.363)">
      <rect class="cls-40" width="337.641" height="237.39"/>
      <rect class="cls-12" x="0.5" y="0.5" width="336.641" height="236.39"/>
    </g>
    <g id="Rectangle_1443" data-name="Rectangle 1443" class="cls-1" transform="translate(1468.461 2954.363)">
      <rect class="cls-40" width="337.641" height="237.39"/>
      <rect class="cls-12" x="0.5" y="0.5" width="336.641" height="236.39"/>
    </g>
    <g id="Rectangle_1444" data-name="Rectangle 1444" class="cls-1" transform="translate(117.898 3191.754)">
      <rect class="cls-40" width="337.641" height="237.39"/>
      <rect class="cls-12" x="0.5" y="0.5" width="336.641" height="236.39"/>
    </g>
    <g id="Rectangle_1445" data-name="Rectangle 1445" class="cls-1" transform="translate(455.539 3191.754)">
      <rect class="cls-40" width="337.641" height="237.39"/>
      <rect class="cls-12" x="0.5" y="0.5" width="336.641" height="236.39"/>
    </g>
    <g id="Rectangle_1446" data-name="Rectangle 1446" class="cls-1" transform="translate(793.18 3191.754)">
      <rect class="cls-40" width="337.641" height="237.39"/>
      <rect class="cls-12" x="0.5" y="0.5" width="336.641" height="236.39"/>
    </g>
    <g id="Rectangle_1447" data-name="Rectangle 1447" class="cls-1" transform="translate(1130.82 3191.754)">
      <rect class="cls-40" width="337.641" height="237.39"/>
      <rect class="cls-12" x="0.5" y="0.5" width="336.641" height="236.39"/>
    </g>
    <g id="Rectangle_1448" data-name="Rectangle 1448" class="cls-1" transform="translate(1468.461 3191.754)">
      <rect class="cls-40" width="337.641" height="237.39"/>
      <rect class="cls-12" x="0.5" y="0.5" width="336.641" height="236.39"/>
    </g>
    <g id="Rectangle_1449" data-name="Rectangle 1449" class="cls-1" transform="translate(117.898 3429.145)">
      <rect class="cls-40" width="337.641" height="237.39"/>
      <rect class="cls-12" x="0.5" y="0.5" width="336.641" height="236.39"/>
    </g>
    <g id="Rectangle_1450" data-name="Rectangle 1450" class="cls-1" transform="translate(455.539 3429.145)">
      <rect class="cls-40" width="337.641" height="237.39"/>
      <rect class="cls-12" x="0.5" y="0.5" width="336.641" height="236.39"/>
    </g>
    <g id="Rectangle_1451" data-name="Rectangle 1451" class="cls-1" transform="translate(793.18 3429.145)">
      <rect class="cls-40" width="337.641" height="237.39"/>
      <rect class="cls-12" x="0.5" y="0.5" width="336.641" height="236.39"/>
    </g>
    <g id="Rectangle_1452" data-name="Rectangle 1452" class="cls-1" transform="translate(1130.82 3429.145)">
      <rect class="cls-40" width="337.641" height="237.39"/>
      <rect class="cls-12" x="0.5" y="0.5" width="336.641" height="236.39"/>
    </g>
    <g id="Rectangle_1453" data-name="Rectangle 1453" class="cls-1" transform="translate(1468.461 3429.145)">
      <rect class="cls-40" width="337.641" height="237.39"/>
      <rect class="cls-12" x="0.5" y="0.5" width="336.641" height="236.39"/>
    </g>
    <g id="Rectangle_1454" data-name="Rectangle 1454" class="cls-1" transform="translate(117.898 3666.535)">
      <rect class="cls-40" width="337.641" height="237.39"/>
      <rect class="cls-12" x="0.5" y="0.5" width="336.641" height="236.39"/>
    </g>
    <g id="Rectangle_1455" data-name="Rectangle 1455" class="cls-1" transform="translate(455.539 3666.535)">
      <rect class="cls-40" width="337.641" height="237.39"/>
      <rect class="cls-12" x="0.5" y="0.5" width="336.641" height="236.39"/>
    </g>
    <g id="Rectangle_1456" data-name="Rectangle 1456" class="cls-1" transform="translate(793.18 3666.535)">
      <rect class="cls-40" width="337.641" height="237.39"/>
      <rect class="cls-12" x="0.5" y="0.5" width="336.641" height="236.39"/>
    </g>
    <g id="Rectangle_1457" data-name="Rectangle 1457" class="cls-1" transform="translate(1130.82 3666.535)">
      <rect class="cls-40" width="337.641" height="237.39"/>
      <rect class="cls-12" x="0.5" y="0.5" width="336.641" height="236.39"/>
    </g>
    <g id="Rectangle_1458" data-name="Rectangle 1458" class="cls-1" transform="translate(1468.461 3666.535)">
      <rect class="cls-40" width="337.641" height="237.39"/>
      <rect class="cls-12" x="0.5" y="0.5" width="336.641" height="236.39"/>
    </g>
    <g id="Group_995" data-name="Group 995" transform="translate(182.825 3042.16)">
      <g id="Group_631" data-name="Group 631" transform="translate(29.174 37.708)">
        <path id="Path_4665" data-name="Path 4665" class="cls-2" d="M144.462,70.579c-12.042,8.869-29.521,13.6-44.541,13.6A80.174,80.174,0,0,1,45.54,63.393c-1.1-1.036-.129-2.4,1.23-1.618a109.582,109.582,0,0,0,54.446,14.437,108.625,108.625,0,0,0,41.5-8.481C144.786,66.889,146.469,69.09,144.462,70.579Z" transform="translate(-45.064 -59.41)"/>
        <path id="Path_4666" data-name="Path 4666" class="cls-2" d="M198.2,63.655c-1.554-1.942-10.164-.906-14.048-.453-1.165.129-1.36-.906-.324-1.618,6.927-4.855,18.192-3.431,19.487-1.813s-.324,12.948-6.8,18.386c-.971.842-1.942.388-1.489-.712C196.457,73.754,199.758,65.661,198.2,63.655Z" transform="translate(-93.756 -58.247)"/>
      </g>
      <g id="Group_632" data-name="Group 632">
        <path id="Path_4667" data-name="Path 4667" class="cls-3" d="M184.43,7.327V2.665A1.122,1.122,0,0,1,185.6,1.5H206.7a1.217,1.217,0,0,1,1.23,1.165V6.679c0,.647-.583,1.554-1.618,2.978l-10.941,15.6a23.706,23.706,0,0,1,12.042,2.59,2.091,2.091,0,0,1,1.1,1.813v5.05a1.15,1.15,0,0,1-1.554,1.1,24.154,24.154,0,0,0-22.27.065c-.712.388-1.489-.388-1.489-1.1V29.985a5.6,5.6,0,0,1,.777-3.237L196.6,8.621H185.6A1.277,1.277,0,0,1,184.43,7.327Z" transform="translate(-64.597 -0.529)"/>
        <path id="Path_4668" data-name="Path 4668" class="cls-3" d="M62.175,36.33H55.765a1.307,1.307,0,0,1-1.165-1.1V2.277a1.217,1.217,0,0,1,1.23-1.165h5.956a1.194,1.194,0,0,1,1.165,1.1V6.485h.129C64.635,2.342,67.548.4,71.5.4c4.014,0,6.539,1.942,8.351,6.085a9.486,9.486,0,0,1,16.314-2.46c2.007,2.784,1.618,6.8,1.618,10.294V35.1a1.217,1.217,0,0,1-1.23,1.165H90.142A1.252,1.252,0,0,1,88.977,35.1V17.621a38.825,38.825,0,0,0-.194-6.15c-.453-2.2-1.942-2.849-3.755-2.849a4.214,4.214,0,0,0-3.82,2.719c-.647,1.683-.583,4.4-.583,6.28V35.1a1.217,1.217,0,0,1-1.23,1.165H72.986A1.252,1.252,0,0,1,71.821,35.1V17.621c0-3.69.583-9.064-3.949-9.064-4.6,0-4.4,5.244-4.4,9.064V35.1A1.33,1.33,0,0,1,62.175,36.33Z" transform="translate(-19.252 -0.141)"/>
        <path id="Path_4669" data-name="Path 4669" class="cls-3" d="M241.537.5c9.517,0,14.7,8.157,14.7,18.58,0,10.035-5.7,18-14.7,18-9.322,0-14.437-8.157-14.437-18.386S232.279.5,241.537.5Zm.065,6.733c-4.726,0-5.05,6.474-5.05,10.488s-.065,12.624,4.985,12.624c4.985,0,5.179-6.927,5.179-11.135a30.456,30.456,0,0,0-.971-8.74A3.9,3.9,0,0,0,241.6,7.233Z" transform="translate(-80.077 -0.176)"/>
        <path id="Path_4670" data-name="Path 4670" class="cls-3" d="M287.075,36.33h-6.409a1.252,1.252,0,0,1-1.165-1.165V2.213a1.258,1.258,0,0,1,1.23-1.1h5.956a1.186,1.186,0,0,1,1.165.906v5.05h.13C289.794,2.536,292.318.4,296.721.4a8.482,8.482,0,0,1,7.51,3.884c1.683,2.654,1.683,7.057,1.683,10.229V35.23a1.2,1.2,0,0,1-1.23,1.036h-6.409a1.245,1.245,0,0,1-1.165-1.036v-17.8c0-3.625.388-8.869-4.014-8.869a4.148,4.148,0,0,0-3.69,2.654,14.465,14.465,0,0,0-1.036,6.215V35.165A1.325,1.325,0,0,1,287.075,36.33Z" transform="translate(-98.554 -0.141)"/>
        <path id="Path_4671" data-name="Path 4671" class="cls-3" d="M148.839,20.458c0,2.525.065,4.6-1.23,6.8a5.235,5.235,0,0,1-4.467,2.913c-2.46,0-3.884-1.877-3.884-4.661,0-5.438,4.92-6.474,9.517-6.474v1.424Zm6.474,15.667a1.275,1.275,0,0,1-1.489.129,15.345,15.345,0,0,1-3.69-4.273c-3.5,3.561-6.021,4.661-10.553,4.661-5.373,0-9.581-3.366-9.581-9.97a10.966,10.966,0,0,1,6.862-10.488c3.5-1.554,8.351-1.813,12.042-2.2v-.842c0-1.554.129-3.3-.777-4.661A4.333,4.333,0,0,0,144.5,6.8a4.908,4.908,0,0,0-5.179,3.884c-.129.583-.518,1.165-1.1,1.165l-6.215-.647a1.16,1.16,0,0,1-.971-1.36C132.46,2.266,139.258,0,145.343,0c3.107,0,7.186.842,9.646,3.172,3.107,2.913,2.849,6.8,2.849,11.07v9.97c0,2.978,1.23,4.338,2.4,5.956.388.583.518,1.295,0,1.683-1.295,1.1-3.625,3.172-4.92,4.273Z" transform="translate(-45.839 0)"/>
        <path id="Path_4672" data-name="Path 4672" class="cls-3" d="M18.9,20.458c0,2.525.065,4.6-1.23,6.8a5.235,5.235,0,0,1-4.467,2.913c-2.46,0-3.884-1.877-3.884-4.661,0-5.438,4.92-6.474,9.517-6.474v1.424Zm6.474,15.667a1.275,1.275,0,0,1-1.489.129,15.345,15.345,0,0,1-3.69-4.273c-3.5,3.561-6.021,4.661-10.553,4.661-5.438,0-9.646-3.3-9.646-9.97A10.966,10.966,0,0,1,6.862,16.185c3.5-1.554,8.351-1.813,12.042-2.2v-.842c0-1.554.129-3.3-.777-4.661A4.333,4.333,0,0,0,14.5,6.8a4.908,4.908,0,0,0-5.179,3.884c-.129.583-.518,1.165-1.1,1.165L2.007,11.2a1.16,1.16,0,0,1-.971-1.36C2.525,2.266,9.322,0,15.408,0c3.107,0,7.251.842,9.711,3.172,3.107,2.913,2.849,6.8,2.849,11.07v9.97c0,2.978,1.23,4.338,2.4,5.956.388.583.518,1.295,0,1.683-1.36,1.1-3.69,3.172-4.985,4.273Z"/>
      </g>
    </g>
    <g id="Group_996" data-name="Group 996" transform="translate(182.984 3270.85)">
      <g id="Group_684" data-name="Group 684" transform="translate(0 17.393)">
        <g id="Group_683" data-name="Group 683">
          <path id="Path_5497" data-name="Path 5497" class="cls-4" d="M25.44,22.9C.832,22.9-.156,42.04,0,47.053c0,0-1.215,22.406,24.836,22.406,22.33,0,23.469-14.051,23.469-14.051H38.048s-1.975,7.747-13.14,7.519C10.554,62.623,10.022,48.8,10.022,48.8H49.669S52.631,22.9,25.44,22.9ZM10.326,41.964s.684-12.532,14.887-12.532c14.051,0,14.051,12.532,14.051,12.532Z" transform="translate(0.015 -22.9)"/>
        </g>
      </g>
      <g id="Group_686" data-name="Group 686" transform="translate(49.304)">
        <g id="Group_685" data-name="Group 685">
          <path id="Path_5498" data-name="Path 5498" class="cls-5" d="M92.774,17.393c-12.38-.076-17.7,7.291-17.7,7.291V0H65.2l.152,52.255s-.076,6.076-.456,10.1h9.646l.38-5.848s4.481,7.367,17.621,7.367,23.469-8.051,23.773-23.089C116.623,25.824,105.155,17.469,92.774,17.393ZM90.5,57.192C74.85,57.42,75.154,40.634,75.154,40.634s-.532-16.1,15.342-16.558c15.874-.38,15.418,16.861,15.418,16.861S106.142,57.04,90.5,57.192Z" transform="translate(-64.9)"/>
        </g>
      </g>
      <g id="Group_688" data-name="Group 688" transform="translate(99.957 17.09)">
        <g id="Group_687" data-name="Group 687">
          <path id="Path_5499" data-name="Path 5499" class="cls-6" d="M178.156,57.438c0-6.76.228-12.836,0-17.089-.228-4.937.228-16.861-21.115-17.773,0,0-20.431-1.9-22.558,13.368h10.481s.835-6.988,11.469-6.76c10.026.152,11.848,5.089,11.848,11.165,0,0-8.583,0-11.469.076-5.165,0-23.317.608-24.988,11.621-2.051,13.14,9.722,17.241,18.912,17.165s14.431-2.81,18.3-7.747l.38,6.076,9.114-.076C178.384,67.692,178.156,64.274,178.156,57.438Zm-25.9,5.544s-9.95,0-10.481-7.9c-.608-8.507,15.266-7.975,15.266-7.975h11.241S170.105,63.21,152.257,62.983Z" transform="translate(-131.59 -22.501)"/>
        </g>
      </g>
      <path id="Path_5500" data-name="Path 5500" class="cls-7" d="M185.8,25.1h11.469L214.13,58.671,230.991,25.1H241.4L210.94,84.874H199.851l8.81-16.558Z" transform="translate(-44.67 -6.036)"/>
      <g id="Group_689" data-name="Group 689" transform="translate(200.221 19.064)">
        <path id="Path_5501" data-name="Path 5501" d="M263.98,27.53V26.315h-.38v-.532h.38V25.1h.684v.684h.835v.456h-.835v1.139c0,.228.152.3.38.3a.963.963,0,0,0,.456-.076v.456a1.431,1.431,0,0,1-.608.152C264.36,28.214,263.98,27.986,263.98,27.53Z" transform="translate(-263.6 -25.1)"/>
        <path id="Path_5502" data-name="Path 5502" d="M267,26h.684v.38a1.138,1.138,0,0,1,.911-.38,1.036,1.036,0,0,1,.911.38,1.312,1.312,0,0,1,.987-.38c.684,0,1.063.3,1.063.911V28.43h-.684V27.063a.559.559,0,0,0-.608-.608.62.62,0,0,0-.684.608v1.291H268.9V26.987a.559.559,0,0,0-.608-.608.62.62,0,0,0-.684.608v1.291H267Z" transform="translate(-264.418 -25.316)"/>
      </g>
    </g>
    <g id="Group_997" data-name="Group 997" transform="translate(1533.464 3030.129)">
      <path id="Path_4718" data-name="Path 4718" d="M32.823,39.605c-7.744.559-17.638,2.022-17.552,4.732.086,2.839,7.356,8.26,16.95,11.83C32.651,50.317,32.78,44.208,32.823,39.605ZM4.516,10.395C1.978,10.481.042,9.362,0,7.814-.044,6.7,2.451,3.125,3.957,2.565A44.569,44.569,0,0,1,18.5-.016,87.9,87.9,0,0,1,31.4.931c26.027,3.872,53.387,23.7,53.9,41.342.344,12-9.981,23.231-30.2,23.833a52.381,52.381,0,0,1-14.8-1.678c-.086,2.925.129,4.517-4.044,4.6-2.538.086-3.528-4.044-3.915-7.4-12.218-5.42-19.531-14.2-19.66-17.681-.172-5.162,9.249-9.464,20.219-11.185.172-4.259.86-15.186,3.14-15.229.9-.043,2.8,2.065,3.485,5.291a56.948,56.948,0,0,1,.731,9.206l.817-.043c15.4-.473,24.65,4.345,24.822,10.067a6.615,6.615,0,0,1-5.851,6.754c-2.065.043-4.474-1.119-4.474-1.764-.043-1.2,4.388-1.506,4.345-3.485-.086-2.968-12.347-4.259-19.918-4.3,0,2.581-.043,5.636,0,7.744.043,1.979.172,7.141.258,11.443A45,45,0,0,0,50.676,59.48C58.807,59.222,77.434,56.254,77,42.272,76.445,22.785,37.856,4.845,17.164,5.448,9.033,5.706,4.129,6.566,4.172,7.384c0,.516,3.958.731,4,1.807C8.173,10.223,5.893,10.352,4.516,10.395Z" transform="translate(0.001 0.028)"/>
      <path id="Path_4719" data-name="Path 4719" class="cls-3" d="M207.99,73.8c1.334-.043,3.226,3.14,3.313,5.162.043,1.979.516,12.433.688,15.444a44.082,44.082,0,0,1-.172,7.227c-.215,1.334-.688,1.979-2.968,2.065s-3.356-1.291-3.528-3.312c-.215-2.022-.344-7.744-.258-10.583.086-2.882.215-8.346.6-11.744C206.011,74.574,206.957,73.842,207.99,73.8Z" transform="translate(-116.831 -42.039)"/>
      <path id="Path_4720" data-name="Path 4720" class="cls-3" d="M211.528,15.8c-.387-.946-1.635-2.882-6.195-2.71-9.894.3-17.509,7.614-17.337,13.422a7.1,7.1,0,0,0,2.28,4.861,5.6,5.6,0,0,0-.387,1.936c.043.989,1.549,3.657,2.71,3.614.989-.043,1.635-.946,2.581-2.452a12.549,12.549,0,0,0,4.517.9c9.292-.258,17.767-8.991,17.595-14.584C217.206,18.205,215.529,15.71,211.528,15.8ZM197.46,29.648c1.162-1.635,7.1-9.55,13.207-9.765,1.807-.043,2.28,1.075,2.323,2.28.043,1.893-3.4,7.485-11.228,7.744A25.06,25.06,0,0,1,197.46,29.648Zm-4.818-2.667a2.8,2.8,0,0,1-.3-1.2c-.043-1.291,2.151-6.195,7.7-6.582a24.061,24.061,0,0,0-4.259,3.786C194.492,24.529,193.417,25.863,192.642,26.981Z" transform="translate(-107.119 -7.438)"/>
      <path id="Path_4721" data-name="Path 4721" class="cls-3" d="M244.691,72.568c5.463-.172,12.261.559,12.3,2.28.043,1.032-.516,3.14-3.4,3.442-3.442.344-20.735,1.075-20.649,3.226.043,1.119,5.248,1.377,9.981,1.678,4.9.3,12.777.473,12.992,8.389.172,6.238-2.194,7.571-3.226,8.088a28.425,28.425,0,0,1-9.378,2.452c-10.5.3-14.842-5.722-14.928-8.776-.086-2.71,2.71-5.119,7.442-5.291,4.732-.129,12,1.549,12.045,3.485.043,1.592-3.183,2.366-4.6,2.409-6.41.172-6.109-2.409-9.808-2.323-2.108.043-5.076,4.56,5.506,4.216,9.421-.3,12.261-3.4,12.218-5.033-.086-2.194-6.84-3.269-10.755-3.485s-9.765-.172-11.787-1.463c-2.022-1.248-1.721-4.13-1.032-6.5C229.118,74.46,239.271,72.74,244.691,72.568Z" transform="translate(-129.398 -41.324)"/>
      <path id="Path_4722" data-name="Path 4722" class="cls-3" d="M303.476,69.024c3.7-.129,11.4,16.563,12.691,16.563,1.291-.043.344-3.915-.473-8.174-1.85-9.636-4.775-14.627-2.022-14.713,2.022-.043,8.6,6.324,8.991,18.713.172,5.722-.645,13.25-5.851,13.422-4.947.129-10.54-15.444-11.83-15.4-.688,0-.731,9.636-.946,12.562-.172,2.882-1.2,4.474-2.8,4.517-2.452.086-3.528-2.28-3.657-6.926C297.411,84.9,298.916,69.153,303.476,69.024Z" transform="translate(-169.556 -35.715)"/>
      <path id="Path_4723" data-name="Path 4723" d="M376.355,83.361c1.764-.043,3.27-.344,3.14,1.936-.172,2.28-.258,3.183-2.065,3.226l-9.335.258c-.3,1.032-1.119,3.7-1.463,4.818-.43,1.42.946,1.118,2.8.559a53.167,53.167,0,0,1,8.819-1.506c2.022-.043,3.571,3.183,2.409,4.3s-7.485,6.453-14.067,6.625a6.942,6.942,0,0,1-6.8-6.8c-.086-2.323.86-5.463,1.764-7.916-.215-.129-.387-.473-.516-1.162-.3-1.592-.989-3.356,1.635-3.614.215-.043.473-.043.774-.086l2.194-4.517a8.8,8.8,0,0,1-2.237-.6,5.76,5.76,0,0,1-2.882-3.614c-.043-1.936,14.153-3.1,17.423-3.183,3.528-.086,4.517.559,5.679,2.194a7.624,7.624,0,0,1,1.549,3.183c0,.43-.387,1.549-4.646,1.678-2.194.086-5.722.43-9.12.559l-1.463,3.915C373.258,83.49,376.355,83.361,376.355,83.361Z" transform="translate(-205.008 -41.061)"/>
      <path id="Path_4724" data-name="Path 4724" class="cls-3" d="M412.484,95.469c-3.829,7.528-6.367,15.487-6.195,21.51.215,6.754,4.345,9.292,5.636,9.249,1.247-.043,1.334-2.022,1.549-3.528a100.854,100.854,0,0,1,6.023-22.241,9.887,9.887,0,0,0,2.925.344c7.744-.215,16.692-9.464,16.433-19.316-.172-5.205-2.151-8.862-5.463-8.776-4.861.129-11.873,7.528-17.509,16.735-.516-3.743,2.452-9.507,4.99-13.551,1.764-2.839,1.463-6.195.731-6.195-1.032.043-11.013,8.475-10.669,20.09A10.355,10.355,0,0,0,412.484,95.469ZM422.809,93.1c4.646-9.12,9.464-14.282,11.142-14.368C436.876,78.691,434.424,91.941,422.809,93.1Z" transform="translate(-231.5 -39.704)"/>
    </g>
    <g id="Group_998" data-name="Group 998" transform="translate(858.312 3018.59)">
      <path id="Path_4699" data-name="Path 4699" class="cls-8" d="M208.215,215.591l-.038,8.251.614.115a47.527,47.527,0,0,0,5.718.729,37.22,37.22,0,0,0,5.066.115,22.149,22.149,0,0,0,4.759-.883,13.188,13.188,0,0,0,4.951-2.648,9.891,9.891,0,0,0,2.878-4.106,11.44,11.44,0,0,0-.038-8.289,9.575,9.575,0,0,0-2.571-3.569,10.469,10.469,0,0,0-3.8-2.187l-6.217-2.3a3.291,3.291,0,0,1-1.689-1.612,2.155,2.155,0,0,1,.077-1.88,5.491,5.491,0,0,1,.422-.576,4.191,4.191,0,0,1,.652-.5c.077-.038.192-.115.269-.154a6.471,6.471,0,0,1,2.226-.652,12.668,12.668,0,0,1,3.991.038,37.272,37.272,0,0,1,4.605.806l.307.077v-7.637l-.614-.115a38.6,38.6,0,0,0-4.682-.844,25.584,25.584,0,0,0-6.179-.038,13.3,13.3,0,0,0-7.1,2.84,9.454,9.454,0,0,0-3.032,4.183,11.22,11.22,0,0,0,0,7.752,8.727,8.727,0,0,0,2.187,3.3,12.38,12.38,0,0,0,2.84,2.034,18.894,18.894,0,0,0,4.3,1.689c.5.154,1,.307,1.458.461l.729.269c.077.038.153.038.23.077a5.712,5.712,0,0,1,1.957,1.19,3.423,3.423,0,0,1,.883,1.3,2.806,2.806,0,0,1,0,1.382,3.005,3.005,0,0,1-1.42,1.727,6.368,6.368,0,0,1-2.379.729,16.959,16.959,0,0,1-3.684.192,40.034,40.034,0,0,1-4.8-.652c-.844-.154-1.65-.345-2.494-.576l-.384-.038" transform="translate(-128.239 -115.545)"/>
      <path id="Path_4700" data-name="Path 4700" class="cls-8" d="M76,223.606v-9.594l-.192.077a18.026,18.026,0,0,1-6.908,1.765,10.189,10.189,0,0,1-6.946-2.034,8.954,8.954,0,0,1-3.032-4.3,10.139,10.139,0,0,1-.192-5.756,8.862,8.862,0,0,1,3.07-4.912,9.488,9.488,0,0,1,4.835-2.111,15.9,15.9,0,0,1,9.172,1.727l.192.115v-9.671l-.422-.115a24.123,24.123,0,0,0-8.75-1.151,20.962,20.962,0,0,0-7.79,1.765,17.563,17.563,0,0,0-6.37,4.951,19.233,19.233,0,0,0-.345,23.371,18.234,18.234,0,0,0,10.17,6.524,23.619,23.619,0,0,0,12.856-.461l.652-.192" transform="translate(-29.907 -115.577)"/>
      <path id="Path_4701" data-name="Path 4701" class="cls-8" d="M161.8,225.2v-36h-9.1v36h9.1" transform="translate(-94.1 -116.554)"/>
      <path id="Path_4702" data-name="Path 4702" class="cls-8" d="M520.238,271.237V270.7H516.4v.537h1.612v4.183h.652v-4.183h1.573" transform="translate(-318.226 -166.778)"/>
      <path id="Path_4703" data-name="Path 4703" class="cls-8" d="M527.4,275.42h.614v-3.761h.077l1.382,3.761h.614l1.5-3.953v3.953h.652V270.7h-1l-1.382,3.914-1.42-3.914H527.4v4.72" transform="translate(-325.005 -166.778)"/>
      <path id="Path_4704" data-name="Path 4704" class="cls-9" d="M0,90.814a4.336,4.336,0,0,0,1.42,2.955,4.556,4.556,0,0,0,6.14,0,4.416,4.416,0,0,0,1.42-2.955V80.837A4.474,4.474,0,0,0,7.6,77.766,4.517,4.517,0,0,0,4.49,76.5a4.517,4.517,0,0,0-3.108,1.266A4.474,4.474,0,0,0,0,80.837v9.978" transform="translate(0 -47.104)"/>
      <path id="Path_4705" data-name="Path 4705" class="cls-9" d="M64.8,70.971a4.336,4.336,0,0,0,1.42,2.955,4.556,4.556,0,0,0,6.14,0,4.416,4.416,0,0,0,1.42-2.955V48.636a4.493,4.493,0,0,0-8.98,0V70.971" transform="translate(-39.932 -27.261)"/>
      <path id="Path_4706" data-name="Path 4706" class="cls-9" d="M129.2,52.629a4.336,4.336,0,0,0,1.42,2.955,4.556,4.556,0,0,0,6.14,0,4.416,4.416,0,0,0,1.42-2.955V4.236a4.493,4.493,0,0,0-8.98,0V52.629" transform="translate(-79.618 0.1)"/>
      <path id="Path_4707" data-name="Path 4707" class="cls-9" d="M193.9,70.971a4.336,4.336,0,0,0,1.42,2.955,4.556,4.556,0,0,0,6.14,0,4.416,4.416,0,0,0,1.42-2.955V48.636a4.493,4.493,0,0,0-8.98,0V70.971" transform="translate(-119.489 -27.261)"/>
      <path id="Path_4708" data-name="Path 4708" class="cls-9" d="M258.4,90.814a4.336,4.336,0,0,0,1.42,2.955,4.556,4.556,0,0,0,6.14,0,4.416,4.416,0,0,0,1.42-2.955V80.837a4.493,4.493,0,0,0-8.98,0v9.978" transform="translate(-159.236 -47.104)"/>
      <path id="Path_4709" data-name="Path 4709" class="cls-9" d="M323.1,70.971a4.336,4.336,0,0,0,1.42,2.955,4.556,4.556,0,0,0,6.14,0,4.416,4.416,0,0,0,1.42-2.955V48.636a4.493,4.493,0,0,0-8.98,0V70.971" transform="translate(-199.107 -27.261)"/>
      <path id="Path_4710" data-name="Path 4710" class="cls-9" d="M387.5,52.629a4.336,4.336,0,0,0,1.42,2.955,4.556,4.556,0,0,0,6.14,0,4.416,4.416,0,0,0,1.42-2.955V4.236a4.493,4.493,0,0,0-8.98,0V52.629" transform="translate(-238.793 0.1)"/>
      <path id="Path_4711" data-name="Path 4711" class="cls-9" d="M452.1,70.971a4.336,4.336,0,0,0,1.42,2.955,4.556,4.556,0,0,0,6.14,0,4.415,4.415,0,0,0,1.42-2.955V48.636a4.493,4.493,0,0,0-8.98,0V70.971" transform="translate(-278.602 -27.261)"/>
      <path id="Path_4712" data-name="Path 4712" class="cls-9" d="M516.6,90.814a4.337,4.337,0,0,0,1.42,2.955,4.556,4.556,0,0,0,6.14,0,4.416,4.416,0,0,0,1.42-2.955V80.837a4.493,4.493,0,0,0-8.98,0v9.978" transform="translate(-318.349 -47.104)"/>
      <path id="Path_4713" data-name="Path 4713" class="cls-8" d="M323.2,223.606v-9.594l-.192.077a18.026,18.026,0,0,1-6.908,1.765,10.189,10.189,0,0,1-6.946-2.034,8.954,8.954,0,0,1-3.032-4.3,10.139,10.139,0,0,1-.192-5.756,8.863,8.863,0,0,1,3.07-4.912,9.488,9.488,0,0,1,4.835-2.111A15.9,15.9,0,0,1,323,198.469l.192.115v-9.671l-.422-.115a24.123,24.123,0,0,0-8.75-1.151,20.962,20.962,0,0,0-7.79,1.765,17.563,17.563,0,0,0-6.37,4.951,19.233,19.233,0,0,0-.345,23.371,18.235,18.235,0,0,0,10.17,6.524,23.619,23.619,0,0,0,12.856-.461l.652-.192" transform="translate(-182.242 -115.577)"/>
      <path id="Path_4714" data-name="Path 4714" class="cls-8" d="M392.2,206.231a18.989,18.989,0,0,0,23.064,18.229,18.492,18.492,0,0,0,6.063-34.04A19.094,19.094,0,0,0,392.2,206.231m13.163-7.407a9.269,9.269,0,0,1,6.946-2,9.423,9.423,0,0,1,6.332,3.492,9.269,9.269,0,0,1,2,6.946,9.423,9.423,0,0,1-3.492,6.332,9.269,9.269,0,0,1-6.946,2,9.423,9.423,0,0,1-6.332-3.492,9.269,9.269,0,0,1-2-6.946,9.508,9.508,0,0,1,3.492-6.332" transform="translate(-241.689 -115.549)"/>
    </g>
    <g id="Group_999" data-name="Group 999" transform="translate(1195.953 3027.961)">
      <path id="Path_4715" data-name="Path 4715" class="cls-10" d="M0,90.3V0H207.231V90.3Z" transform="translate(0 0)"/>
      <path id="Path_4716" data-name="Path 4716" class="cls-11" d="M117.574,236.058a32.088,32.088,0,0,0-7.072-.719,27.792,27.792,0,0,0-8.511.959c-4.075.959-9.949,2.637-13.785,3.6a29.783,29.783,0,0,1-7.671,1.2,16.525,16.525,0,0,1-2.637-.24,9.3,9.3,0,0,1-2.158-.6,9.137,9.137,0,0,1-1.558-.839,10.809,10.809,0,0,1-1.2-1.079,4.951,4.951,0,0,1-.839-1.319c-.24-.479-.36-.959-.6-1.438a7.074,7.074,0,0,1-.24-1.678v-1.918a24.526,24.526,0,0,1,.719-3.356c.479-1.319,1.079-3,2.038-5.154A58.917,58.917,0,0,1,77.9,216.64c1.558-2.4,3.236-4.795,4.795-6.832a47.836,47.836,0,0,1,4.435-4.915,23.46,23.46,0,0,1,3.476-3,16.137,16.137,0,0,1,2.517-1.558,7.661,7.661,0,0,1,1.918-.719,8.248,8.248,0,0,1,1.558-.24.9.9,0,0,1,1.079,1.079v.6a13.515,13.515,0,0,0-2.158,1.438l-.719.719a2.864,2.864,0,0,0-.839,1.558c-.12.36.36,1.079.6,1.2.959.719,2.038.24,3.117-1.079a3.643,3.643,0,0,0,.6-.839,4.258,4.258,0,0,0,.479-1.079,4.347,4.347,0,0,0,0-4.2l-.719-.719a2.259,2.259,0,0,0-1.079-.479,3.026,3.026,0,0,0-1.558-.12,12.383,12.383,0,0,0-2.637.36,17.18,17.18,0,0,0-3.476,1.2,26.771,26.771,0,0,0-4.315,2.4,59.882,59.882,0,0,0-5.154,3.956,58.872,58.872,0,0,0-5.394,5.514,55.392,55.392,0,0,0-7.791,11.867,40.337,40.337,0,0,0-1.8,4.675,22.477,22.477,0,0,0-.719,3.716,17.972,17.972,0,0,0,.12,4.435,6.87,6.87,0,0,0,.479,1.678,16.051,16.051,0,0,0,.719,1.438,9.147,9.147,0,0,0,.959,1.319,12.736,12.736,0,0,0,1.319,1.079,9.44,9.44,0,0,0,1.918.959,26.106,26.106,0,0,0,2.637.719,31.891,31.891,0,0,0,3.6.24,26.016,26.016,0,0,0,7.312-.839c3.356-.719,8.031-2.038,11.507-2.757a32.369,32.369,0,0,1,7.432-.839,27.908,27.908,0,0,1,3.476.24,7.747,7.747,0,0,1,2.517.719,9.777,9.777,0,0,1,2.038,1.319,18.307,18.307,0,0,1,2.158,2.158,16.225,16.225,0,0,1,6.113-2.637,18.012,18.012,0,0,1,2.4-.24,3.7,3.7,0,0,1,1.079.12,8.332,8.332,0,0,1,2.038.479,50.151,50.151,0,0,1,5.154,1.918,33.036,33.036,0,0,0-5.993-4.555A18.791,18.791,0,0,0,117.574,236.058Zm25.292-26.73h-4.555l-2.277,4.2h4.435Zm66.886-7.432a22.007,22.007,0,0,1-5.514,2.4,27.15,27.15,0,0,1-6.353.719l-3.956,4.795c.36,0,.6.12.959.12a8.529,8.529,0,0,0,1.918.12,17.827,17.827,0,0,0,4.315-.6,24.78,24.78,0,0,0,9.11-4.795,18.229,18.229,0,0,0,3.356-3.476,19.048,19.048,0,0,0,2.158-3.6A52.412,52.412,0,0,1,209.751,201.9ZM204.477,232.1c-.839,1.079-1.678,2.158-2.4,3s-1.2,1.319-1.678,1.8a5.239,5.239,0,0,1-.959.839c-.24.24-.479.36-.6.479a1.441,1.441,0,0,1-.959.24c-.36-.12-.36-.36-.36-.6,0-.12,0,0,.36-.839.36-.719,1.079-1.918,1.678-3.236l7.911-13.425h-3.836l-1.319,1.2c-.479-.36-.959-.6-1.319-.839a1.293,1.293,0,0,0-.839-.24c-.24,0-.479-.12-.719-.12a8.142,8.142,0,0,0-4.075,1.319c-.479.24-.839.6-1.438.959a16.188,16.188,0,0,0-1.8,1.558,22.834,22.834,0,0,0-2.877,3.236c-1.438,1.8-3.476,4.555-4.915,6.473s-2.277,2.877-2.877,3.6l-1.079,1.079a2.62,2.62,0,0,0-.6.36,1.081,1.081,0,0,1-.6.12c-.36,0-.839-.6-.839-.959a4.42,4.42,0,0,1,.24-2.038,15.856,15.856,0,0,1,.839-2.757,42.472,42.472,0,0,1,1.438-4.075c3-1.918,5.873-4.075,8.151-5.873a37.728,37.728,0,0,0,5.394-5.274,75.743,75.743,0,0,0,4.795-6.473l-1.8.24c-1.2,1.678-2.4,3.236-3.836,4.915a49.842,49.842,0,0,1-5.034,5.034,57.306,57.306,0,0,1-5.993,4.675c1.319-2.517,2.757-4.915,4.2-7.432,1.438-2.4,3-4.795,4.555-6.952s3-4.075,4.435-5.754a39.7,39.7,0,0,1,3.6-3.836,24.467,24.467,0,0,1,2.4-2.038c.6-.479,1.079-.6,1.319-.839a4.715,4.715,0,0,1,.719-.24.44.44,0,0,1,.36.12.783.783,0,0,1,.24.959c0,.12,0,.24-.24.719s-.479,1.319-.839,2.038l1.558-.24c.24-.479.6-.959.719-1.319s.24-.479.24-.719.12-.479.12-.719a2.5,2.5,0,0,0-.839-2.158c-.24-.12-.36-.24-.6-.36a4.554,4.554,0,0,0-2.517.12,16.529,16.529,0,0,0-2.4.959,25.017,25.017,0,0,0-3.236,2.158,33.981,33.981,0,0,0-4.435,4.2,69.2,69.2,0,0,0-5.514,6.593c-1.918,2.517-3.956,5.514-5.873,8.511-1.8,3-3.476,6.113-5.034,9.23h-2.158c.36-.839.839-1.8,1.079-2.4s.36-1.079.479-1.438a5.9,5.9,0,0,0-.12-3.236c-.12-.24-.24-.6-.479-.719a2.421,2.421,0,0,0-2.158-.959,2.371,2.371,0,0,0-1.2.24,7.2,7.2,0,0,0-1.678.6,12.738,12.738,0,0,0-2.038,1.2,13.434,13.434,0,0,0-2.517,2.158,22.1,22.1,0,0,0-2.757,3,28.776,28.776,0,0,0-4.2,6.713,14.235,14.235,0,0,0-.959,2.637,6.649,6.649,0,0,0-.36,2.038v1.438c.12.479.24.839.36,1.2a1.611,1.611,0,0,0,.719.839,2.61,2.61,0,0,0,.959.6,3.547,3.547,0,0,0,1.2.24,5.834,5.834,0,0,0,2.637-.719,17.6,17.6,0,0,0,1.8-1.079,16.486,16.486,0,0,0,2.277-2.038,34.052,34.052,0,0,0,2.877-3.476,47.993,47.993,0,0,0,3.476-5.154h2.158c-.719,1.8-1.319,3.716-1.8,4.915-.36,1.2-.479,1.678-.6,2.158a21.962,21.962,0,0,0-.24,2.517,2.259,2.259,0,0,0,.24.959c.12.24.24.6.36.839a1.445,1.445,0,0,0,.6.6,1.79,1.79,0,0,0,.839.36,2.337,2.337,0,0,0,.959.12,6.382,6.382,0,0,0,3.716-1.319,16.182,16.182,0,0,0,1.8-1.558c.719-.719,1.558-1.558,2.4-2.517,0,.6-.12,1.2-.12,1.678a3.7,3.7,0,0,0,.12,1.2,1.013,1.013,0,0,0,.24.719c.12.24.12.36.24.6a3.8,3.8,0,0,0,.6.719,2.732,2.732,0,0,0,1.319.36,2.34,2.34,0,0,0,.839-.12,7.662,7.662,0,0,0,1.918-.719,4.723,4.723,0,0,0,1.319-1.079c.6-.479,1.319-1.2,2.038-1.918,0,.479-.12,1.079-.12,1.438s0,.719.12.839c0,.24.12.36.12.6.12.479.6.959.959.959,1.2.36,2.158,0,3.476-.6a9.649,9.649,0,0,0,1.678-1.079,25.086,25.086,0,0,0,2.158-1.918,27.529,27.529,0,0,0,2.637-3.236,50.316,50.316,0,0,0,2.877-4.555ZM169.6,233.421c-.6.839-1.2,1.558-1.8,2.277s-1.079,1.2-1.558,1.678a6.913,6.913,0,0,1-1.2.959,7.1,7.1,0,0,0-.719.479.906.906,0,0,1-.479.12,1.459,1.459,0,0,1-1.2-.719.916.916,0,0,1-.24-.6,3.319,3.319,0,0,1-.12-1.558,6.185,6.185,0,0,1,.24-1.319,11.132,11.132,0,0,1,.479-1.558,17.3,17.3,0,0,1,4.2-5.514,8.062,8.062,0,0,0,.839,1.319c.12.24.36.36.6.6a4.313,4.313,0,0,0,1.079.6,6.934,6.934,0,0,0,1.678.6C170.675,231.743,170.2,232.582,169.6,233.421Zm3.716-8.271c0,.24-.12.6-.12.839a2.76,2.76,0,0,1-.36,1.079c-.24.6-.719,1.438-1.079,2.277-.479-.12-.959-.36-1.319-.479a1.843,1.843,0,0,1-.719-.479c-.12-.12-.36-.24-.36-.36a1.932,1.932,0,0,1-.479-.839,3.493,3.493,0,0,1,1.558-4.075,2.3,2.3,0,0,1,1.438-.479,1.449,1.449,0,0,1,1.2.36c.36.36.36.719.36,1.319A2.04,2.04,0,0,0,173.312,225.151Zm20.857,9.23c-.6.839-1.2,1.678-1.678,2.277a5.557,5.557,0,0,1-1.2,1.2c-.36.24-.6.479-.839.6a1.524,1.524,0,0,1-1.438,0c-.36-.36-.24-.719-.24-1.2,0-.24.12-.6.12-.959.12-.36.24-.839.36-1.2a5.847,5.847,0,0,1,.719-1.558c.36-.6.719-1.319,1.2-2.038a25.371,25.371,0,0,1,1.8-2.517c.719-.839,1.438-1.8,2.158-2.517.719-.839,1.438-1.438,2.038-2.038q.9-.719,1.438-1.079a6.873,6.873,0,0,1,.839-.479.906.906,0,0,1,.479-.12,1.52,1.52,0,0,1,.719.12c.24.24.12.6,0,.959a4.355,4.355,0,0,1-.36.839,4.859,4.859,0,0,1-.6,1.079Zm-35-7.552a26.735,26.735,0,0,0,.479-2.757,5.026,5.026,0,0,0-.12-1.918,2.025,2.025,0,0,1-.24-.6c-.24-.479-.6-.6-.959-.839a1.7,1.7,0,0,0-.719-.24,2.661,2.661,0,0,0-1.079-.12,5.375,5.375,0,0,0-1.319.12,10.1,10.1,0,0,0-5.634,3.476c-.479.6-.959,1.2-1.438,1.918a23.513,23.513,0,0,0-1.438,2.517,22.308,22.308,0,0,0-1.2,3,32.136,32.136,0,0,0-.839,3.236,29.96,29.96,0,0,1,2.757-2.158,11.655,11.655,0,0,1,1.8-1.2,18.029,18.029,0,0,1,2.158-1.079,17.009,17.009,0,0,1,1.2-3.476,13.067,13.067,0,0,1,.719-1.319,6.651,6.651,0,0,1,.719-.959,4.747,4.747,0,0,1,1.8-1.438,2.222,2.222,0,0,1,2.277.24,1.321,1.321,0,0,1,.36,1.079,14.452,14.452,0,0,1-.839,4.315c-.24.719-.6,1.319-.959,2.158a17.4,17.4,0,0,1-1.438,2.277,19.836,19.836,0,0,1-4.435,4.555,15.518,15.518,0,0,1-4.555,2.637,7.175,7.175,0,0,1-1.438.24,4.5,4.5,0,0,1-1.2-.12,4.574,4.574,0,0,1-2.038-1.438,10.546,10.546,0,0,1-.719-1.2,5.058,5.058,0,0,1-.36-2.637,16.212,16.212,0,0,1,.959-3.6,66.854,66.854,0,0,1,3-6.713c1.438-2.637,3.117-5.634,4.795-8.151a53.475,53.475,0,0,1,4.795-6.473,52.651,52.651,0,0,1,3.836-4.315c1.2-1.079,2.158-2.038,3.117-2.757a22.884,22.884,0,0,1,2.517-1.678c.719-.36,1.438-.719,2.038-.959a11.037,11.037,0,0,1,4.795-.6,26.781,26.781,0,0,0-3.6,2.4,23.948,23.948,0,0,0-4.915,5.154c-.6.839-.959,1.558-1.319,2.158a7.663,7.663,0,0,0-.719,1.918,15.63,15.63,0,0,1-.36,1.558v1.079a1.7,1.7,0,0,0,.24.719c.12.24.24.36.36.6l.479.479a1.7,1.7,0,0,0,.719.24,2.337,2.337,0,0,0,.959.12,3.944,3.944,0,0,0,2.158-.6,8.943,8.943,0,0,0,1.438-.839,15.573,15.573,0,0,0,1.678-1.438,9.52,9.52,0,0,0,1.678-2.038,20.027,20.027,0,0,0,3.356-6.832l.36-1.8v-2.4a17.648,17.648,0,0,1,4.315.479,17.379,17.379,0,0,1,4.435,2.038,73.566,73.566,0,0,1,6.473,4.795l4.315-4.435a44.193,44.193,0,0,0-4.2-3.236,18.941,18.941,0,0,0-3.356-1.8,16.308,16.308,0,0,0-2.637-.839,9.017,9.017,0,0,0-3.6-.12,8.31,8.31,0,0,0-1.918.36c-.959.24-2.4.719-3.836,1.2a13.384,13.384,0,0,0-2.158-1.2,3.638,3.638,0,0,0-1.319-.36,8.333,8.333,0,0,0-4.435.479,22.065,22.065,0,0,0-4.555,1.918,54.092,54.092,0,0,0-5.993,3.836,52.9,52.9,0,0,0-6.233,5.394,61.633,61.633,0,0,0-5.394,6.113,43.508,43.508,0,0,0-3.836,5.754,29.017,29.017,0,0,0-2.517,5.154c-.6,1.558-1.079,3.117-1.438,4.435a15.81,15.81,0,0,0-.6,3.716,9.669,9.669,0,0,0,0,2.637,7.276,7.276,0,0,0,.6,2.158,9.915,9.915,0,0,0,1.079,1.918,10.353,10.353,0,0,0,1.678,1.558,10.625,10.625,0,0,0,2.038.959,8.16,8.16,0,0,0,4.795,0,15.3,15.3,0,0,0,3-1.319,23.86,23.86,0,0,0,6.713-5.514,22.566,22.566,0,0,0,4.315-6.713A13.706,13.706,0,0,1,159.167,226.829Zm11.627-25.651a24.8,24.8,0,0,1-.479,2.637,16.042,16.042,0,0,1-1.079,3.117c-.479,1.079-.959,2.038-1.319,2.877a15.039,15.039,0,0,1-1.319,2.038,8.782,8.782,0,0,1-2.877,2.517,2.917,2.917,0,0,1-2.637,0,.985.985,0,0,1-.479-.719,5.612,5.612,0,0,1,.479-2.757,5.339,5.339,0,0,1,.719-1.438,11.244,11.244,0,0,1,1.2-1.678,14.442,14.442,0,0,1,1.918-2.038c.839-.719,1.8-1.558,2.757-2.4A24.311,24.311,0,0,1,170.794,201.177ZM128.6,224.551c-.839.959-1.2,1.319-1.438,1.558s-.479.36-.6.479a1.057,1.057,0,0,1-.959.24.516.516,0,0,1-.479-.479,2.1,2.1,0,0,1,.12-.6,14.4,14.4,0,0,1,.719-1.438c.479-.959,1.2-2.277,1.918-3.716l6.713-11.387h-4.2l-.839.959c-.6-.36-1.2-.6-1.558-.839a1.612,1.612,0,0,0-.959-.24c-.24,0-.6-.12-.839-.12a6.173,6.173,0,0,0-3.236.959,9.078,9.078,0,0,0-1.678,1.2,26.552,26.552,0,0,0-3,2.877c-1.438,1.678-3.716,4.315-5.514,6.473s-3.236,3.836-4.315,4.915a18.811,18.811,0,0,1-2.158,1.918,4.489,4.489,0,0,1-1.2.719c-.36.12-.6.24-.959.36a2.953,2.953,0,0,1-2.038-.24c-.36-.24-.36-.479-.479-.839a7.287,7.287,0,0,1,.12-2.277,11.132,11.132,0,0,1,.479-1.558,10.172,10.172,0,0,1,.959-2.038,21.47,21.47,0,0,1,1.558-2.637A34.772,34.772,0,0,1,109.3,213.4a7.713,7.713,0,0,1,1.8-1.438,5.338,5.338,0,0,1,.959-.6,1.081,1.081,0,0,1,.6-.12c.24,0,.479,0,.6.24a1.367,1.367,0,0,1,.36.719v.6c-.36.12-.839.12-1.079.24a1.951,1.951,0,0,0-.719.36,1.654,1.654,0,0,0-.479.36,2.694,2.694,0,0,0-1.079,2.277,1.523,1.523,0,0,0,.479.839c.719.6,1.678.24,2.757-.959.12-.24.36-.479.479-.719a8.273,8.273,0,0,0,1.079-2.4,3.224,3.224,0,0,0-1.079-3.476,2.409,2.409,0,0,0-1.558-.479,4.5,4.5,0,0,0-1.2.12,8.939,8.939,0,0,0-3.6,1.8c-1.079.839-2.637,2.277-3.836,3.356a21.972,21.972,0,0,1-2.877,2.158,11.346,11.346,0,0,1-2.038,1.079,10.549,10.549,0,0,1-1.8.6c.36-.839.719-1.678.959-2.4s.479-1.319.6-1.8.12-.719.24-1.079a4.369,4.369,0,0,0-.24-1.8,2.622,2.622,0,0,0-.36-.6,1.8,1.8,0,0,0-1.079-.839,3.953,3.953,0,0,0-2.877-.12,5.651,5.651,0,0,0-1.8.719c-.719.36-1.438.839-2.4,1.438-.839.6-1.8,1.438-2.757,2.277a32.667,32.667,0,0,0-2.757,3,26.894,26.894,0,0,0-3.716,6.113c-.36.959-.6,1.678-.839,2.517a6.649,6.649,0,0,0-.36,2.038v1.319a2.258,2.258,0,0,0,.24.959,5.845,5.845,0,0,0,.36.839,1.445,1.445,0,0,0,.6.6,1.79,1.79,0,0,0,.839.36,3.319,3.319,0,0,0,1.079.12c.36,0,.839-.12,1.319-.12a6.757,6.757,0,0,0,1.438-.479c.479-.24,1.079-.6,1.678-.959q.9-.719,2.158-1.8a32.848,32.848,0,0,0,2.877-3.356,61.466,61.466,0,0,0,3.836-5.514l3.236-.719c-.959,1.8-1.8,3.476-2.4,4.675a7.057,7.057,0,0,0-.719,2.158,6.856,6.856,0,0,0,.24,4.675,6.588,6.588,0,0,0,.839,1.079,13.085,13.085,0,0,0,1.319.719,7.075,7.075,0,0,0,1.678.24,8.349,8.349,0,0,0,4.555-1.438,10.625,10.625,0,0,0,2.158-1.678,40.936,40.936,0,0,0,3.236-3.236,25.234,25.234,0,0,0-.12,2.757,2.691,2.691,0,0,0,.12,1.2,5.192,5.192,0,0,0,.12.6c.12.12.12.24.24.36a1.393,1.393,0,0,0,.959.719,4.707,4.707,0,0,0,3.356-.36,7.854,7.854,0,0,0,1.558-.959,24.385,24.385,0,0,0,2.158-1.8,4,4,0,0,0,0,1.2,1.3,1.3,0,0,0,.12.719,1.7,1.7,0,0,0,.24.719,2.09,2.09,0,0,0,1.438.719h.839a6.065,6.065,0,0,0,3.6-1.319,14.872,14.872,0,0,0,2.277-1.918,27.3,27.3,0,0,0,2.757-3.236,50.324,50.324,0,0,0,2.877-4.555l-.839-.24C130.639,222.154,129.44,223.712,128.6,224.551Zm-37.518-.12a9.479,9.479,0,0,1-1.558,1.8,4.564,4.564,0,0,0-.719.6c-.24.12-.36.24-.6.36a1.738,1.738,0,0,1-2.4-.479,1.971,1.971,0,0,1-.24-1.2,6.9,6.9,0,0,1,.24-1.2,7.693,7.693,0,0,1,.839-1.918,19.366,19.366,0,0,1,1.678-2.877,32.23,32.23,0,0,1,2.637-3.356,17.623,17.623,0,0,0,1.2,1.558,3.733,3.733,0,0,0,1.079.839,9.7,9.7,0,0,0,1.558.719C93.361,221.315,91.922,223.233,91.083,224.431Zm5.873-10.548c0,.24-.12.6-.12.839a11.028,11.028,0,0,1-.36,1.079l-.959,1.918c-.479-.12-.959-.36-1.319-.479a6.879,6.879,0,0,0-.839-.479.936.936,0,0,1-.479-.479l-.36-.36a2.513,2.513,0,0,1,.6-3.356,2.614,2.614,0,0,1,.6-.479l.719-.36c.719-.24,1.319-.479,1.918,0A2.533,2.533,0,0,1,96.957,213.883Zm24.213,9.589a20.336,20.336,0,0,1-1.2,1.678,4.352,4.352,0,0,1-.959,1.079,3.178,3.178,0,0,1-.719.6,6.879,6.879,0,0,1-.839.479,1.216,1.216,0,0,1-1.2-.36,1.575,1.575,0,0,1-.36-1.2c0-.24.12-.479.12-.839a9.1,9.1,0,0,1,.479-1.319c.24-.6.6-1.2,1.079-2.158.479-.839,1.2-1.918,1.918-3a35.507,35.507,0,0,1,2.517-3.117c.839-.959,1.558-1.678,2.158-2.277s1.079-.839,1.319-1.079a1.854,1.854,0,0,1,.719-.36,1.324,1.324,0,0,1,.959,0c.479.36.24.959.24,1.319,0,.12-.12.24-.36.6a17.53,17.53,0,0,0-1.079,1.8ZM204.6,242.052l-.36-1.438h-.6v2.158H204v-1.678l.479,1.678h.479l.479-1.678v1.678h.36v-2.158h-.6Zm2.877,0c-.12-.12-.12-.12-.24-.12a.623.623,0,0,0,.479-.24.6.6,0,0,0,0-.719l-.24-.24h-1.438v2.158h.479v-.839h.36a.117.117,0,0,1,.12.12,1.484,1.484,0,0,1,.24.36l.36.479h.479l-.24-.36A2.673,2.673,0,0,0,207.474,242.052Zm-.719-.479h-.36v-.479h.719c.12,0,.12,0,.12.12v.24l-.12.12Z" transform="translate(-36.553 -175.123)"/>
    </g>
    <g id="Group_1000" data-name="Group 1000" transform="translate(520.466 3271.369)">
      <path id="Path_4725" data-name="Path 4725" class="cls-12" d="M.5,77.889H206.9V.6H.5" transform="translate(-0.158 -0.189)"/>
      <path id="Path_4726" data-name="Path 4726" class="cls-12" d="M.5.6H206.9V77.889H.5" transform="translate(-0.158 -0.189)"/>
      <path id="Path_4727" data-name="Path 4727" class="cls-12" d="M.5.6H206.9V77.889H.5" transform="translate(-0.158 -0.189)"/>
      <path id="Path_4728" data-name="Path 4728" class="cls-12" d="M0,0H206.744V77.7H0"/>
      <path id="Path_4729" data-name="Path 4729" class="cls-13" d="M.5.6H207.518V78.3H.5" transform="translate(-0.158 -0.189)"/>
      <path id="Path_4730" data-name="Path 4730" class="cls-12" d="M0,0H206.744V77.7H0"/>
      <path id="Path_4731" data-name="Path 4731" class="cls-14" d="M119.831,49.456a8.692,8.692,0,0,0-3.423.89V60.82c.958.068,1.506.068,2.464.068,3.354,0,3.765-1.506,3.765-3.628v-5c.068-1.506-.479-2.807-2.807-2.807m-22.112-.548c-2.328,0-2.807,1.3-2.807,2.807v.89h5.682v-.89c-.068-1.575-.548-2.807-2.875-2.807M54.864,59.793a1.683,1.683,0,0,0,1.848,1.917,7.7,7.7,0,0,0,3.218-.89V58.356H56.918c-1.438-.068-2.054.205-2.054,1.438M141.4,49.456c-2.328,0-3.149,1.232-3.149,2.807v5.75c0,1.575.821,2.807,3.149,2.807s3.149-1.232,3.149-2.807v-5.75c-.068-1.506-.89-2.807-3.149-2.807M43.5,66.228H36.723V49.8H33.3V44.116h3.423V40.693c0-4.655,1.917-7.393,7.393-7.393h4.518v5.682H45.828c-2.122,0-2.259.822-2.259,2.259v2.807H48.7l-.616,5.682H43.569v16.5Zm23.276.068H61.094l-.274-1.438A12.991,12.991,0,0,1,54.385,66.5c-4.176,0-6.367-2.807-6.367-6.64,0-4.518,2.6-6.161,7.188-6.161H59.93v-.958c0-2.328-.274-3.012-3.834-3.012H50.278l.548-5.682h6.367c7.8,0,9.516,2.464,9.516,8.694V66.3ZM86.081,50.209a32,32,0,0,0-6.23-.753c-3.081,0-3.971.685-3.971,3.286v4.929c0,2.6.89,3.286,3.971,3.286a31.457,31.457,0,0,0,6.23-.753v5.545a30.906,30.906,0,0,1-6.777.89c-7.325,0-10.2-3.834-10.2-9.379V53.29c0-5.545,2.875-9.379,10.2-9.379a30.433,30.433,0,0,1,6.777.89Zm21.291,6.983H94.912v.479c0,2.6.89,3.286,3.971,3.286a38.989,38.989,0,0,0,7.941-.753v5.545a36.166,36.166,0,0,1-8.489.89c-7.325,0-10.2-3.834-10.2-9.379V52.742c0-4.861,2.191-8.831,9.653-8.831s9.653,3.9,9.653,8.831v4.45Zm22.112.068c0,5.34-1.506,9.242-10.816,9.242a47.475,47.475,0,0,1-9.036-.89v-30.6l6.777-1.164V44.6a15.242,15.242,0,0,1,5.134-.822c6.777,0,7.941,3.081,7.941,7.941Zm21.838.137c0,4.655-1.917,9.1-9.926,9.1s-9.926-4.518-9.926-9.1v-4.45c0-4.655,1.917-9.1,9.926-9.1s9.926,4.518,9.926,9.1Zm21.77,0c0,4.655-1.917,9.1-9.926,9.1s-9.926-4.518-9.926-9.1v-4.45c0-4.655,1.917-9.1,9.926-9.1s9.926,4.518,9.926,9.1Zm22.386,8.831h-7.393l-6.23-10.406V66.228h-6.777V35.011l6.777-1.164V53.906l6.23-9.858h7.393L188.632,54.8ZM163.165,49.456c-2.328,0-3.081,1.232-3.081,2.807v5.75c0,1.575.822,2.807,3.081,2.807,2.328,0,3.149-1.232,3.149-2.807v-5.75c0-1.506-.822-2.807-3.149-2.807" transform="translate(-10.503 -10.503)"/>
      <path id="Path_4732" data-name="Path 4732" class="cls-14" d="M274.952,75.7a2.123,2.123,0,0,1,0,4.244,2.123,2.123,0,0,1,0-4.244Zm0,.342a1.8,1.8,0,0,0-1.711,1.78,1.713,1.713,0,1,0,3.423,0,1.852,1.852,0,0,0-1.711-1.78Zm-.411,3.012H274.2V76.727c.205,0,.411-.068.685-.068a1.1,1.1,0,0,1,.753.205.621.621,0,0,1,.205.479.581.581,0,0,1-.479.548h0c.205.068.342.205.411.548s.137.479.137.548H275.5a.985.985,0,0,1-.137-.616.453.453,0,0,0-.479-.411h-.274v1.1Zm0-1.3h.274c.274,0,.548-.137.548-.411,0-.205-.137-.411-.548-.411h-.274Z" transform="translate(-86.076 -23.877)"/>
    </g>
    <path id="Path_6748" data-name="Path 6748" class="cls-15" d="M219.294,131.587a57.694,57.694,0,1,1,57.849-57.694,57.684,57.684,0,0,1-57.849,57.694m0-112.75a55.057,55.057,0,1,0,55.057,55.057,55.069,55.069,0,0,0-55.057-55.057m49.008,71.5-.465-.155A43.47,43.47,0,0,0,269.7,77.926c0-6.979-2.947-11.322-6.514-11.322a3.788,3.788,0,0,0-3.877,4.032c0,4.343,5.273,4.653,5.273,14.113a38.072,38.072,0,0,1-2.016,11.477c-5.893,20.007-24.814,29.312-43.27,29.312-8.53,0-14.578-1.706-16.284-2.637l.155-.465a40.066,40.066,0,0,0,12.252,1.861c6.979,0,11.167-2.947,11.167-6.359a4,4,0,0,0-4.032-4.032c-4.343,0-4.653,5.428-13.958,5.428a39.045,39.045,0,0,1-11.632-2.016c-19.852-6.049-29.312-24.814-29.312-43.27a49.73,49.73,0,0,1,2.637-16.284l.465.155a41.161,41.161,0,0,0-1.861,12.252c0,6.979,2.947,11.166,6.514,11.166a3.838,3.838,0,0,0,3.877-3.877c0-4.343-5.273-4.808-5.273-14.113a39.044,39.044,0,0,1,2.016-11.632C182.072,31.864,200.838,22.4,219.138,22.4c8.53,0,14.578,2.016,16.285,2.792l-.155.465a35.1,35.1,0,0,0-12.407-2.016c-6.824,0-11.166,2.947-11.166,6.514a3.876,3.876,0,0,0,4.032,3.877c4.343,0,4.653-5.273,13.958-5.273a38.222,38.222,0,0,1,11.632,2.016c20.007,6.049,29.312,24.969,29.312,43.115a49.716,49.716,0,0,1-2.326,16.44M240.7,76.53c-5.428,0-9.616,4.032-9.616,8.84,0,4.032,2.326,7.134,5.583,7.134a1.99,1.99,0,0,0,2.171-2.016c0-2.016-2.326-2.481-2.171-5.583a3.642,3.642,0,0,1,3.722-3.567c3.877,0,5.428,4.032,5.428,7.755-.155,5.893-4.343,9.771-9.461,9.771-6.669,0-11.011-6.359-11.011-13.338,0-10.236,6.669-14.268,10.236-15.2a12.732,12.732,0,0,0,3.412.31c2.481,0,5.428-.465,5.428-2.792,0-1.861-2.792-2.326-4.653-2.326-1.706,0-3.877.31-4.032.62a5.843,5.843,0,0,1-2.637-3.1c6.514-4.963,11.166-9.771,11.166-15.2,0-2.947-1.861-5.428-5.583-5.428-6.514,0-11.477,8.375-11.477,15.819a14.493,14.493,0,0,0,.31,3.722,148.283,148.283,0,0,1-12.562,8.22,26.507,26.507,0,0,1,.465-4.808c1.861-2.016,4.5-5.118,4.5-7.444a1.832,1.832,0,0,0-1.861-2.016c-3.257,0-5.583,4.808-6.2,8.22-1.4,1.706-4.343,4.032-6.669,4.032a3.02,3.02,0,0,1-2.792-2.326c6.048-2.016,13.648-10.391,13.648-17.99,0-1.551-.62-5.118-5.428-5.118-7.134,0-13.338,10.7-13.338,19.076-2.637,0-3.567-2.792-3.567-4.808a34.012,34.012,0,0,1,.775-4.808,1.255,1.255,0,0,0-1.241-1.4c-2.326,0-3.877,3.257-3.877,6.824.155,5.118,3.567,8.375,8.065,8.685.62,3.1,3.412,5.893,6.669,5.893a9.887,9.887,0,0,0,6.359-2.171c-.155,1.086-.31,2.016-.465,3.1-6.979,3.722-12.1,6.2-16.75,10.391-3.722,3.412-5.738,7.91-5.738,11.322,0,4.808,3.1,9.305,9.305,9.305,7.289,0,13.028-5.893,15.664-14.113,1.241-3.877,1.706-9.461,2.016-14.578a153.981,153.981,0,0,0,14.734-9.305A6.206,6.206,0,0,0,230.77,68a19.741,19.741,0,0,0-11.322,18.456c0,8.375,5.583,17.525,16.595,17.525A15.164,15.164,0,0,0,251.4,89.247c0-6.514-3.567-12.717-10.7-12.717M196.805,99.018c-2.326,0-3.722-1.551-3.722-4.187,0-6.824,9.15-13.183,16.284-16.595-1.241,9.616-5.583,20.782-12.562,20.782m5.273-37.842c0-5.273,4.808-14.113,8.22-14.113a.98.98,0,0,1,1.086,1.086c-.155,3.722-4.032,10.236-9.305,13.028m30.243-2.326c0-6.514,3.877-11.632,6.2-11.632.931,0,1.086.931,1.086,1.706,0,2.171-2.481,5.738-7.289,9.926" transform="translate(742.981 3236.246)"/>
    <g id="Group_1001" data-name="Group 1001" transform="translate(1565.674 3263.408)">
      <path id="Path_4764" data-name="Path 4764" class="cls-16" d="M124.728,43.818c5.194-2.554,7.833-2.214,7.833.426a94.091,94.091,0,0,1-.766,11.069c-1.958,17.54-5.194,31.929-5.449,49.98C134.861,83.24,141.928,68,151.123,49.182c2.895-6.045,4.853-4.853,7.237-6.045,9.281-4.172,9.621-1.618,8.429,3.576-4.513,18.732-16.007,77.822-17.8,86.848-.511,2.639-3.406,1.618-4.087.511-3.406-4.6-7.152-4.6-6.726-7.748,2.129-15.071,9.621-53.216,11.58-62.156C139.8,84.517,129.5,110.06,124.217,124.45c-1.107,3.065-3.15,2.81-4.428.6-1.873-3.236-5.279-4.853-5.79-8.514-1.873-11.835,2.043-34.4,2.554-48.788-5.364,15.582-14.475,45.978-18.391,59.687-1.618,5.7-7.152,4.683-5.7-.766,6.045-23.074,19.072-63.688,24.692-78.248,1.277-3.321,4.768-3.15,7.578-4.6Z" transform="translate(-24.218 -40.964)"/>
      <path id="Path_4765" data-name="Path 4765" class="cls-16" d="M80,40.992c-1.788-.426-6.9,2.384-10.132,2.81a3.765,3.765,0,0,0-2.214,2.043c-5.024,11.58-9.536,22.563-13.368,32.44-5.024.937-10.813,2.043-17.284,3.406,4.683-11.92,9.366-23.755,13.964-34.995,2.214-5.7-3.661-6.216-6.045-.511-2.98,7.322-8.6,21.116-14.815,37.208-4.6,1.107-9.536,2.384-14.56,3.917-3.661,1.022-3.832,1.958-2.214,4.257.937,1.192,2.639,1.022,3.491,1.958,2.214,2.214,3.491,4.938,7.408,5.364-3.576,9.281-6.982,18.732-10.047,27.757-1.958,5.7,3.661,6.9,5.79.851,3.406-9.707,7.067-19.583,10.813-29.545,3.065-.681,10.558-2.214,17.54-3.832-5.449,15.156-9.025,26.65-10.473,32.27a3.072,3.072,0,0,0,.426,2.129c1.788,2.64,3.661,2.81,6.045,6.13A2.034,2.034,0,0,0,47.9,133.8c5.109-15.5,10.217-29.886,15.156-42.828,2.043-.511,5.79-1.362,8-4.683,4-5.96,5.109-4.768,6.13-6.556,1.192-2.3.341-4.342-3.917-3.917,0,0-1.618.17-4.6.426,4.768-12.091,9.025-22.308,11.92-30.226.851-2.64.937-4.683-.6-5.024Z" transform="translate(-12.353 -40.949)"/>
      <path id="Path_4766" data-name="Path 4766" class="cls-16" d="M83.935,125.476c.681-.851,1.277-1.788,1.873-2.639,2.469-3.661.085-5.875-2.469-3.661a13.572,13.572,0,0,0-1.107,1.107c-.426-1.277-.851-2.725-1.277-4a54.542,54.542,0,0,0,3.321-4.428c4.172-6.386-4-10.132-7.493-5.96-1.873,2.214-1.362,4.342-.851,6.3.17.6.426,1.362.681,2.384a54.615,54.615,0,0,0-3.746,4.172c-4,4.6-2.895,10.558,1.362,11.92,2.554.766,4.938-.341,7.067-2.214l.255.766c1.107,2.81,4.6,1.958,3.236-1.447-.255-.681-.511-1.447-.851-2.3Zm-5.7-5.875c.341,1.107.681,2.214,1.107,3.321a7.105,7.105,0,0,1-1.362,1.022c-1.618.937-2.81-.085-.766-2.895.341-.511.681-.937,1.022-1.447Zm1.277-8.089c-.085-.341-.17-.6-.255-.851-1.192-4.428,3.917-3.236,1.362-.341a7.353,7.353,0,0,1-1.107,1.192Z" transform="translate(-20.974 -50.335)"/>
    </g>
    <g id="Group_1002" data-name="Group 1002" transform="translate(1199.265 3285.23)">
      <path id="Path_4758" data-name="Path 4758" class="cls-17" d="M50.97,24.1h-24.4v7.189H43.949c-.838,10.06-9.222,14.356-17.123,14.356A18.868,18.868,0,0,1,7.88,26.528,18.892,18.892,0,0,1,26.847,7.289a18.614,18.614,0,0,1,12.931,5.2l5.03-5.2A25.55,25.55,0,0,0,26.6.1,26.772,26.772,0,0,0,0,26.381,26.7,26.7,0,0,0,26.952,52.81c14.126,0,24.458-9.683,24.458-23.976a21.032,21.032,0,0,0-.44-4.737Z" transform="translate(0 -0.1)"/>
      <path id="Path_4759" data-name="Path 4759" class="cls-18" d="M277.539,89.7a16.955,16.955,0,1,0,17.018,17.018c0-11.234-8.865-17.018-17.018-17.018Zm.1,6.665c4.883,0,9.515,3.94,9.515,10.311,0,6.225-4.611,10.29-9.536,10.29-5.407,0-9.683-4.338-9.683-10.332,0-5.889,4.213-10.27,9.7-10.27Z" transform="translate(-205.904 -70.921)"/>
      <path id="Path_4760" data-name="Path 4760" class="cls-19" d="M453.439,89.7a16.955,16.955,0,1,0,17.018,17.018c-.021-11.234-8.865-17.018-17.018-17.018Zm.084,6.665c4.883,0,9.515,3.94,9.515,10.311,0,6.225-4.611,10.29-9.536,10.29-5.407,0-9.683-4.338-9.683-10.332,0-5.889,4.213-10.27,9.7-10.27Z" transform="translate(-344.939 -70.921)"/>
      <path id="Path_4761" data-name="Path 4761" class="cls-17" d="M629.684,89.8c-9.117,0-16.284,7.985-16.284,16.934,0,10.207,8.3,16.976,16.117,16.976a11.223,11.223,0,0,0,9.305-4.129v3.353c0,5.847-3.542,9.347-8.907,9.347a9.406,9.406,0,0,1-8.677-6.036l-6.518,2.725c2.305,4.883,6.958,9.976,15.258,9.976,9.054,0,15.97-5.7,15.97-17.668V90.408h-7.1V93.7a12.1,12.1,0,0,0-9.159-3.9Zm.671,6.644c4.464,0,9.054,3.814,9.054,10.332,0,6.623-4.569,10.27-9.159,10.27-4.862,0-9.368-3.94-9.368-10.207-.021-6.5,4.674-10.4,9.473-10.4Z" transform="translate(-484.842 -71.001)"/>
      <path id="Path_4762" data-name="Path 4762" class="cls-18" d="M856.8,89.6c-8.593,0-15.8,6.832-15.8,16.934,0,10.668,8.048,17.018,16.641,17.018,7.168,0,11.569-3.919,14.21-7.44l-5.868-3.9a9.488,9.488,0,0,1-8.3,4.674c-4.758,0-6.958-2.62-8.32-5.135l22.74-9.431-1.174-2.766c-2.221-5.428-7.335-9.955-14.126-9.955Zm.293,6.539a6.749,6.749,0,0,1,6.266,3.626l-15.174,6.35c-.65-4.925,4-9.976,8.907-9.976Z" transform="translate(-664.742 -70.842)"/>
      <rect id="Rectangle_1115" data-name="Rectangle 1115" class="cls-20" width="6.958" height="49.964" transform="translate(165.842 1.74)"/>
    </g>
    <g id="Group_1003" data-name="Group 1003" transform="translate(527.98 3514.355)">
      <path id="Path_4805" data-name="Path 4805" class="cls-21" d="M203.74,136.045V69.4H10.4v66.645Z" transform="translate(-10.4 -69.4)"/>
      <path id="Path_4806" data-name="Path 4806" class="cls-22" d="M106.857,134.112c52.633,0,95.257-14.13,95.257-31.556S159.49,71,106.857,71,11.6,85.13,11.6,102.556c0,17.309,42.624,31.556,95.257,31.556Z" transform="translate(-10.187 -69.116)"/>
      <path id="Path_4807" data-name="Path 4807" class="cls-23" d="M50.42,112.715c.471,0,.589-.235.353-.471a7.548,7.548,0,0,1-.471-3.179V91.05a10.331,10.331,0,0,1,.471-3.179c.236-.235.118-.471-.353-.471H34.171c-.471,0-.589.236-.353.471a7.548,7.548,0,0,1,.471,3.179v17.9a10.331,10.331,0,0,1-.471,3.179c-.235.235-.118.471.353.471H50.42Z" transform="translate(-6.265 -66.206)"/>
      <path id="Path_4808" data-name="Path 4808" class="cls-23" d="M71.014,96.466,76.9,88.46c.235-.235.118-.589.118-.706s0-.235.118-.235H93.15c.236,0,.118.118,0,.235l-6.594,9.184c-.353.353-.235.706.118,1.177L95.74,112.48c.118.118.235.235,0,.235H76.194c-.118,0-.118-.118-.118-.235s.353-1.413.118-1.648l-5.063-7.771v6.005a10.331,10.331,0,0,0,.471,3.179c.235.235.118.471-.353.471H55.471c-.471,0-.589-.235-.353-.471a7.548,7.548,0,0,0,.471-3.179V91.05a10.331,10.331,0,0,0-.471-3.179c-.235-.235-.118-.471.353-.471H71.249c.471,0,.589.236.353.471a7.549,7.549,0,0,0-.471,3.179l-.118,5.416Z" transform="translate(-2.485 -66.206)"/>
      <path id="Path_4809" data-name="Path 4809" class="cls-23" d="M109.56,103.3a.416.416,0,0,1,.471-.471h6.241c.589,0,2.944-.118,3.179.118s.471.118.471-.353V96.584c0-.353-.235-.471-.471-.353-.235.235-2.473.118-3.179.118h-6.241a.416.416,0,0,1-.471-.471V94.7a.416.416,0,0,1,.471-.471h8.949a10.331,10.331,0,0,1,3.179.471c.235.235.471.118.471-.353V87.4H94.371c-.471,0-.589.235-.353.471a7.548,7.548,0,0,1,.471,3.179v17.78a10.332,10.332,0,0,1-.471,3.179c-.235.235-.118.471.353.471H122.63v-7.418c0-.471-.236-.589-.471-.353a7.548,7.548,0,0,1-3.179.471h-8.949a.416.416,0,0,1-.471-.471V103.3Z" transform="translate(4.418 -66.206)"/>
      <path id="Path_4810" data-name="Path 4810" class="cls-23" d="M162.323,112.445s-9.42-22.254-9.537-22.607a2.27,2.27,0,0,1,0-1.531c.235-.589,0-.706-.353-.706h-21.9c-.353,0-.589.118-.353.706a2.249,2.249,0,0,1,0,1.531c-.118.353-8.478,22.607-8.478,22.607h13.541c.353,0,.353-.118.236-.353a1.623,1.623,0,0,1,0-1.06l.706-2.355a1.026,1.026,0,0,1,1.177-.824h5.887a1.026,1.026,0,0,1,1.177.824l.706,2.355a1.623,1.623,0,0,1,0,1.06c-.118.235,0,.353.235.353Zm-23.9-9.537c-.235,0-.235-.235-.118-.353l1.413-3.415c.118-.118.118-.235.235-.235s.118.118.235.235l1.413,3.415a.226.226,0,0,1-.118.353Z" transform="translate(9.352 -66.17)"/>
    </g>
    <g id="Group_1004" data-name="Group 1004" transform="translate(200.684 3513.053)">
      <path id="Path_4767" data-name="Path 4767" class="cls-24" d="M106.7,4.95H78.1L79.933,0H106.7Z" transform="translate(65.093)"/>
      <path id="Path_4768" data-name="Path 4768" class="cls-24" d="M52.1,0H78.685l1.65,4.95H52.1Z" transform="translate(43.423)"/>
      <path id="Path_4769" data-name="Path 4769" class="cls-24" d="M57.352,0A18.416,18.416,0,0,1,68.72,4.95H20.5V0Z" transform="translate(17.086)"/>
      <g id="Group_643" data-name="Group 643">
        <rect id="Rectangle_1116" data-name="Rectangle 1116" class="cls-24" width="33.369" height="4.95"/>
        <path id="Path_4770" data-name="Path 4770" class="cls-24" d="M9.1,1.3" transform="translate(7.584 1.083)"/>
      </g>
      <path id="Path_4771" data-name="Path 4771" class="cls-24" d="M108.2,9.95H76.3L77.95,5h30.069V9.95Z" transform="translate(63.592 4.167)"/>
      <path id="Path_4772" data-name="Path 4772" class="cls-24" d="M83.819,9.867H52.1V5.1H81.985Z" transform="translate(43.423 4.251)"/>
      <path id="Path_4773" data-name="Path 4773" class="cls-24" d="M72.487,5.1c.55,1.65,1.467,2.934,1.467,4.95H20.6V5.1Z" transform="translate(17.169 4.251)"/>
      <g id="Group_644" data-name="Group 644" transform="translate(0 9.351)">
        <rect id="Rectangle_1117" data-name="Rectangle 1117" class="cls-24" width="33.369" height="4.95"/>
        <path id="Path_4774" data-name="Path 4774" class="cls-24" d="M9.1,6.4" transform="translate(7.584 -4.017)"/>
      </g>
      <path id="Path_4775" data-name="Path 4775" class="cls-24" d="M74.6,15.05l1.65-4.95h24.018v4.95Z" transform="translate(62.176 8.418)"/>
      <path id="Path_4776" data-name="Path 4776" class="cls-24" d="M80.952,10.1l1.833,4.95H57.3V10.1Z" transform="translate(47.757 8.418)"/>
      <path id="Path_4777" data-name="Path 4777" class="cls-24" d="M56.9,10.1a14.724,14.724,0,0,1-.733,4.95H41.5V10.1Z" transform="translate(34.588 8.418)"/>
      <g id="Group_645" data-name="Group 645" transform="translate(9.351 18.518)">
        <rect id="Rectangle_1118" data-name="Rectangle 1118" class="cls-24" width="14.301" height="4.95"/>
        <path id="Path_4778" data-name="Path 4778" class="cls-24" d="M9,11.5" transform="translate(-1.85 -8.933)"/>
      </g>
      <g id="Group_646" data-name="Group 646" transform="translate(47.486 18.518)">
        <rect id="Rectangle_1119" data-name="Rectangle 1119" class="cls-24" width="14.301" height="4.95"/>
        <path id="Path_4779" data-name="Path 4779" class="cls-24" d="M29.8,11.5" transform="translate(-22.65 -8.933)"/>
      </g>
      <path id="Path_4780" data-name="Path 4780" class="cls-24" d="M71.418,16.283V19.95H57.3V15H84.252l1.65,4.584L87.552,15h27.135v4.95H100.57V16.283L99.286,19.95H72.7Z" transform="translate(47.757 12.502)"/>
      <path id="Path_4781" data-name="Path 4781" class="cls-24" d="M25.9,15.1H67.153a20.778,20.778,0,0,1-4.034,4.95H26.083A46.356,46.356,0,0,1,25.9,15.1Z" transform="translate(21.586 12.585)"/>
      <g id="Group_647" data-name="Group 647" transform="translate(9.351 27.685)">
        <rect id="Rectangle_1120" data-name="Rectangle 1120" class="cls-24" width="14.301" height="4.95"/>
        <path id="Path_4782" data-name="Path 4782" class="cls-24" d="M9,16.4" transform="translate(-1.85 -14.017)"/>
      </g>
      <g id="Group_648" data-name="Group 648" transform="translate(148.326 36.852)">
        <rect id="Rectangle_1121" data-name="Rectangle 1121" class="cls-24" width="14.118" height="4.95"/>
        <path id="Path_4783" data-name="Path 4783" class="cls-24" d="M84.7,21.5" transform="translate(-77.733 -18.933)"/>
      </g>
      <path id="Path_4784" data-name="Path 4784" class="cls-24" d="M71.418,20.1H57.3v4.95H71.418Z" transform="translate(47.757 16.752)"/>
      <path id="Path_4785" data-name="Path 4785" class="cls-24" d="M90.068,20.1l-1.65,4.95H68.433L66.6,20.1Z" transform="translate(55.508 16.752)"/>
      <path id="Path_4786" data-name="Path 4786" class="cls-24" d="M25.9,20.1H62.936a22.455,22.455,0,0,1,4.4,4.95H25.9Z" transform="translate(21.586 16.752)"/>
      <path id="Path_4787" data-name="Path 4787" class="cls-24" d="M19.4,25.05V20.1H5.1v4.95Z" transform="translate(4.251 16.752)"/>
      <g id="Group_649" data-name="Group 649" transform="translate(148.326 46.203)">
        <rect id="Rectangle_1122" data-name="Rectangle 1122" class="cls-24" width="14.118" height="4.95"/>
        <path id="Path_4788" data-name="Path 4788" class="cls-24" d="M84.7,26.5" transform="translate(-77.733 -24.117)"/>
      </g>
      <g id="Group_650" data-name="Group 650" transform="translate(105.057 46.203)">
        <rect id="Rectangle_1123" data-name="Rectangle 1123" class="cls-24" width="14.118" height="4.95"/>
        <path id="Path_4789" data-name="Path 4789" class="cls-24" d="M61.1,26.5" transform="translate(-54.133 -24.117)"/>
      </g>
      <path id="Path_4790" data-name="Path 4790" class="cls-24" d="M83.518,30.15s1.65-4.95,1.833-4.95H68.3l1.833,4.95Z" transform="translate(56.925 21.003)"/>
      <path id="Path_4791" data-name="Path 4791" class="cls-24" d="M25.9,30.05V25.1H40.384v4.95Z" transform="translate(21.586 20.92)"/>
      <path id="Path_4792" data-name="Path 4792" class="cls-24" d="M56.184,25.2c.733,1.467.733,3.3.917,4.95H41.7V25.2Z" transform="translate(34.755 21.003)"/>
      <g id="Group_651" data-name="Group 651" transform="translate(9.351 46.203)">
        <rect id="Rectangle_1124" data-name="Rectangle 1124" class="cls-24" width="14.301" height="4.95"/>
        <path id="Path_4793" data-name="Path 4793" class="cls-24" d="M9,26.5" transform="translate(-1.85 -24.117)"/>
      </g>
      <g id="Group_652" data-name="Group 652" transform="translate(148.326 55.187)">
        <rect id="Rectangle_1125" data-name="Rectangle 1125" class="cls-24" width="23.468" height="4.95"/>
        <path id="Path_4794" data-name="Path 4794" class="cls-24" d="M87.3,31.4" transform="translate(-75.566 -29.017)"/>
      </g>
      <g id="Group_653" data-name="Group 653" transform="translate(95.523 55.187)">
        <rect id="Rectangle_1126" data-name="Rectangle 1126" class="cls-24" width="23.468" height="4.95"/>
        <path id="Path_4795" data-name="Path 4795" class="cls-24" d="M58.6,31.4" transform="translate(-46.683 -29.017)"/>
      </g>
      <path id="Path_4796" data-name="Path 4796" class="cls-24" d="M78.984,35.05h-7.15L70,30.1H80.634Z" transform="translate(58.342 25.087)"/>
      <path id="Path_4797" data-name="Path 4797" class="cls-24" d="M0,30.1v4.95H33.369V30.1Z" transform="translate(0 25.087)"/>
      <path id="Path_4798" data-name="Path 4798" class="cls-24" d="M74.137,30.1c-.367,1.65-.733,3.667-1.833,4.95H20.6V30.1Z" transform="translate(17.169 25.087)"/>
      <path id="Path_4799" data-name="Path 4799" class="cls-24" d="M74.183,39.967h-.55L71.8,35.2h4.217Z" transform="translate(59.842 29.338)"/>
      <g id="Group_654" data-name="Group 654" transform="translate(148.326 64.538)">
        <rect id="Rectangle_1127" data-name="Rectangle 1127" class="cls-24" width="23.468" height="4.95"/>
        <path id="Path_4800" data-name="Path 4800" class="cls-24" d="M87.3,36.5" transform="translate(-75.566 -34.117)"/>
      </g>
      <path id="Path_4801" data-name="Path 4801" class="cls-24" d="M20.6,40.05V35.1H69a18.964,18.964,0,0,1-12.467,4.95H20.6" transform="translate(17.169 29.254)"/>
      <g id="Group_655" data-name="Group 655" transform="translate(95.523 64.538)">
        <rect id="Rectangle_1128" data-name="Rectangle 1128" class="cls-24" width="23.468" height="4.95"/>
        <path id="Path_4802" data-name="Path 4802" class="cls-24" d="M58.6,36.5" transform="translate(-46.683 -34.117)"/>
      </g>
      <path id="Path_4803" data-name="Path 4803" class="cls-24" d="M33.369,35.2v4.95H0V35.2Z" transform="translate(0 29.338)"/>
    </g>
    <g id="Group_1005" data-name="Group 1005" transform="translate(884.479 3502.629)">
      <path id="Path_4812" data-name="Path 4812" class="cls-25" d="M0,49.326v4.191A33.233,33.233,0,0,0,5.9,71.68c3.26,4.968,7.762,7.917,12.884,11.177,4.036,2.484,12.108,5.278,17.542,6.365A102.123,102.123,0,0,0,57.9,91.55h4.036c24.838,0,50.3-7.3,66.44-15.834v-11.8c-4.347,2.329-9.78,5.433-14.9,6.986a40.431,40.431,0,0,0-3.881,1.552c-1.4.466-2.794.776-4.191,1.4-2.018.776-6.209,1.863-8.538,2.484-2.949.621-5.744,1.4-8.848,2.018-3.26.621-6.054.931-9.314,1.552-3.1.466-6.675.776-9.935.931-3.57.155-7.141.31-10.866.31h-.776c-13.195,0-25.769-2.018-34.617-6.52C13.971,70.438,6.054,62.676,6.054,49.947V48.86c0-5.9,1.863-10.556,3.57-14.747a35.961,35.961,0,0,1,3.26-5.9c.621-1.087,1.242-1.708,1.863-2.639s1.552-1.708,2.173-2.484V18.9c-2.018,1.4-4.191,4.036-5.9,5.9A42.363,42.363,0,0,0,5.9,31.474C3.415,35.044,0,43.427,0,49.326Z" transform="translate(0 10.439)"/>
      <path id="Path_4813" data-name="Path 4813" class="cls-25" d="M142.628,37.567V33.841s-.621-4.191-.621-4.657a26.866,26.866,0,0,0-1.242-4.191,34.97,34.97,0,0,0-3.881-7.141,36.66,36.66,0,0,0-11.8-9.935C116.238,2.949,102.888,0,89.227,0H88.14A131.088,131.088,0,0,0,51.35,5.433c-2.949.776-5.278,1.708-8.072,2.639-2.173.776-5.588,2.018-7.606,2.949-2.484,1.242-4.812,2.173-7.141,3.415-1.242.621-6.054,3.57-6.83,3.726v3.1c1.087-.31,4.968-2.484,6.52-3.1a52.511,52.511,0,0,1,6.83-2.794c.931-.31,2.484-.931,3.415-1.242,1.087-.466,2.329-.776,3.57-1.242,2.329-.776,4.968-1.708,7.451-2.329,5.278-1.242,9.935-2.329,15.679-3.415A104.769,104.769,0,0,1,82.552,5.433H88.3c11.332,0,23.6,2.639,30.736,6.675,4.347,2.484,7.3,4.5,10.4,8.383,2.329,2.949,5.123,8.538,5.123,13.661v2.173c0,5.278-2.794,11.177-5.123,14.282a35.464,35.464,0,0,1-4.5,5.123c-.776.776-4.812,3.881-5.744,4.036V68.3c1.863-.155,7.3-3.726,8.693-4.657a31,31,0,0,0,6.83-6.675,44.725,44.725,0,0,0,5.123-8.383,26.794,26.794,0,0,0,1.708-4.968c.466-.931,1.087-6.054,1.087-6.054Z" transform="translate(11.986)"/>
      <path id="Path_4814" data-name="Path 4814" class="cls-25" d="M54.9,38.923v1.552c0,8.848,5.433,15.368,14.282,15.368h1.708a16.183,16.183,0,0,0,6.52-1.4c2.018-.931,3.1-2.329,4.657-3.415L77.1,46.064c-.931,1.552-3.726,2.949-6.365,2.949h-1.4c-3.415,0-6.52-2.794-6.52-6.054v-.931H83V38.613a17.645,17.645,0,0,0-3.26-10.4c-1.708-2.173-5.123-4.812-9-4.812H68.25a13.163,13.163,0,0,0-9.625,4.812c-2.018,2.173-3.726,6.52-3.726,10.711Zm7.917-3.1v.931H74.925v-.621a5.8,5.8,0,0,0-5.744-6.054h-.621a6.176,6.176,0,0,0-5.744,5.744Z" transform="translate(30.324 12.925)"/>
      <path id="Path_4815" data-name="Path 4815" class="cls-25" d="M24.2,55.057h7.917V30.22h7.141a2.754,2.754,0,0,1,2.794,2.639v22.2h7.917V33.014c0-5.278-3.57-9.314-8.693-9.314H24.2V55.057Z" transform="translate(13.367 13.091)"/>
      <path id="Path_4816" data-name="Path 4816" class="cls-25" d="M44.6,48.836c0,5.278,3.415,9.314,8.693,9.314h5.433V51.475H54.69c-1.242,0-2.018-1.4-2.018-2.639V33.313h6.054v-6.52H52.672V18.1H44.755V48.836Z" transform="translate(24.635 9.997)"/>
      <path id="Path_4817" data-name="Path 4817" class="cls-25" d="M76,52.035a7.066,7.066,0,0,0,2.484,5.123,6.476,6.476,0,0,0,2.484,1.4,22.7,22.7,0,0,0,3.1.776V15.4H76V52.035Z" transform="translate(41.978 8.506)"/>
      <path id="Path_4818" data-name="Path 4818" class="cls-25" d="M14.4,31.151V46.675c0,5.278,3.1,8.693,8.072,8.693V23.7H14.555L14.4,31.151Z" transform="translate(7.954 13.091)"/>
      <path id="Path_4819" data-name="Path 4819" class="cls-25" d="M14.5,23.606h8.072V16H14.5Z" transform="translate(8.009 8.838)"/>
      <path id="Path_4820" data-name="Path 4820" class="cls-25" d="M87.86,15.3a3,3,0,0,1,1.552.466,3.177,3.177,0,0,1,1.242,1.242,3,3,0,0,1,.466,1.552,2.622,2.622,0,0,1-.466,1.552,3.177,3.177,0,0,1-1.242,1.242,3,3,0,0,1-1.552.466,2.622,2.622,0,0,1-1.552-.466,3.177,3.177,0,0,1-1.242-1.242A3,3,0,0,1,84.6,18.56a2.622,2.622,0,0,1,.466-1.552,3.177,3.177,0,0,1,1.242-1.242A2.622,2.622,0,0,1,87.86,15.3Zm0,.621a2.925,2.925,0,0,0-1.242.31,1.812,1.812,0,0,0-.931.931,1.711,1.711,0,0,0-.466,1.4,4.532,4.532,0,0,0,.31,1.4,2.636,2.636,0,0,0,.931.931,2.307,2.307,0,0,0,1.4.31,4.533,4.533,0,0,0,1.4-.31,2.636,2.636,0,0,0,.931-.931,2.307,2.307,0,0,0,.31-1.4,4.533,4.533,0,0,0-.31-1.4,2.636,2.636,0,0,0-.931-.931,4.533,4.533,0,0,0-1.4-.31Zm-1.4,4.347V16.852H87.7a1.681,1.681,0,0,1,.931.155,1.194,1.194,0,0,1,.466.31.57.57,0,0,1,.155.466.807.807,0,0,1-.31.621,1.186,1.186,0,0,1-.776.31c.155,0,.155.155.31.155a2.143,2.143,0,0,1,.466.621l.466.621h-.621l-.466-.31a4.248,4.248,0,0,0-.621-.776.57.57,0,0,0-.466-.155h-.31v1.4Zm.466-1.863h.621c.31,0,.466,0,.621-.155s.155-.155.155-.31,0-.155-.155-.31c0-.155-.155-.155-.31-.155H86.618V18.4Z" transform="translate(46.729 8.451)"/>
    </g>
    <g id="Group_1006" data-name="Group 1006" transform="translate(574.79 3015.951)">
      <path id="Path_5505" data-name="Path 5505" class="cls-3" d="M101.924,185.5c-2.708,6.041-3.958,8.749-7.5,13.956-4.791,7.5-11.665,16.664-20.205,16.664-7.5,0-9.582-5-19.789-4.791-10.207,0-12.29,5-20,4.791-8.54,0-15-8.332-19.789-15.831-13.54-20.622-15-44.993-6.666-57.908C14.02,133.216,23.394,127.8,32.143,127.8c8.957,0,14.581,5,22.08,5,7.291,0,11.665-5,22.08-5,7.915,0,16.248,4.374,22.08,11.665C79.011,150.3,82.344,178,101.924,185.5Z" transform="translate(-2.826 -100.929)"/>
      <path id="Path_5506" data-name="Path 5506" class="cls-3" d="M43.853,133.647c3.749-4.791,6.666-11.665,5.624-18.747-6.249.417-13.331,4.374-17.706,9.582-3.749,4.583-7.082,11.457-5.832,18.331,6.874,0,13.748-3.958,17.914-9.165Z" transform="translate(21.917 -114.9)"/>
    </g>
    <g id="Group_1007" data-name="Group 1007" transform="translate(1585.648 3502.539)">
      <g id="Group_668" data-name="Group 668" transform="translate(0)">
        <g id="Group_666" data-name="Group 666">
          <path id="Path_4836" data-name="Path 4836" class="cls-26" d="M109.443,6.448c8.938,0,16.152,37.6,16.152,84.015h12.928C138.522,40.507,125.5,0,109.443,0c-9.129,0-17.3,12.162-22.632,31.218C81.48,12.162,73.341,0,64.18,0,48.124,0,35.1,40.507,35.1,90.494H48.028c0-46.412,7.246-84.015,16.152-84.015,8.938,0,16.152,34.729,16.152,77.567H93.259C93.291,41.177,100.5,6.448,109.443,6.448Z" transform="translate(-35.1)"/>
        </g>
      </g>
    </g>
    <g id="Group_1008" data-name="Group 1008" transform="translate(182.971 3763.129)">
      <path id="Path_4838" data-name="Path 4838" class="cls-27" d="M0,0H21.066V21.066H0V0Z"/>
      <path id="Path_4840" data-name="Path 4840" class="cls-28" d="M183.5,0h21.066V21.066H183.5V0Z" transform="translate(-160.283)"/>
      <path id="Path_4841" data-name="Path 4841" class="cls-29" d="M1459.735,55.591a8.3,8.3,0,0,1,6.643-.784c.013,1.3,0,2.606.013,3.91a4.314,4.314,0,0,0-3.353-.3,2.661,2.661,0,0,0-1.518,2.126,30.764,30.764,0,0,0-.089,3.416h6.668c.013-1.442-.012-2.885.026-4.327,1.505-.43,3.011-.911,4.5-1.366.013,1.9-.013,3.8.013,5.706,1.506-.025,3.011,0,4.5-.013v3.695c-1.506-.063-3.011-.013-4.53-.025.013,2.126,0,4.251,0,6.377.025,1.177-.063,2.366.076,3.53a2.3,2.3,0,0,0,.987,1.822,3.4,3.4,0,0,0,3.467-.329v3.732a8.841,8.841,0,0,1-4.163.633,5.069,5.069,0,0,1-3.593-1.645,6.8,6.8,0,0,1-1.291-4.352c-.012-3.264,0-6.529,0-9.793h-6.668V82.971h-4.555c0-5.124-.012-10.248,0-15.36-1.05-.025-2.113,0-3.176-.013,0-1.215.013-2.429,0-3.657,1.05-.025,2.1-.013,3.163-.013.076-1.62-.164-3.277.316-4.859a6.3,6.3,0,0,1,2.556-3.479Z" transform="translate(-1269.772 -47.569)"/>
      <path id="Path_4842" data-name="Path 4842" class="cls-29" d="M714.5,65.279a2.771,2.771,0,0,1,2.518.9,2.6,2.6,0,0,1,.316,2.961A2.83,2.83,0,0,1,714.3,70.4a2.589,2.589,0,0,1-2.113-2.543,2.65,2.65,0,0,1,2.315-2.581Z" transform="translate(-622.077 -56.991)"/>
      <path id="Path_4843" data-name="Path 4843" class="cls-29" d="M454.5,69.943h6.63q3.094,7.857,6.2,15.7c.531,1.316,1.025,2.632,1.569,3.935,2.657-6.541,5.339-13.07,7.984-19.624,2.126-.038,4.251-.013,6.377-.013v26.57c-1.531,0-3.062.013-4.593-.013.013-6.529,0-13.07.013-19.611,0-.291-.013-.582-.025-.886a4.694,4.694,0,0,0-.24.43c-2.632,6.693-5.314,13.361-7.933,20.054-1.088.038-2.176,0-3.277.025-2.72-6.693-5.4-13.4-8.1-20.092-.076-.139-.152-.278-.228-.4-.051,2.859-.013,5.732-.025,8.591V96.5h-4.34q-.019-13.266-.013-26.557Z" transform="translate(-396.995 -61.086)"/>
      <path id="Path_4844" data-name="Path 4844" class="cls-29" d="M782.238,126.111a12.309,12.309,0,0,1,6.769.025,5.575,5.575,0,0,1,1.3.544c-.025,1.455,0,2.91-.013,4.352a7.187,7.187,0,0,0-5.2-1.594,5.353,5.353,0,0,0-3.783,2.1,7.314,7.314,0,0,0-1.2,5.276,5.36,5.36,0,0,0,6.1,5.048,8.7,8.7,0,0,0,4.087-1.683c.013,1.379,0,2.746.013,4.125a11.069,11.069,0,0,1-6.225,1.291,9.194,9.194,0,0,1-5.934-2.48,9.492,9.492,0,0,1-2.758-6.377,11.592,11.592,0,0,1,1.8-7.073,9.159,9.159,0,0,1,5.048-3.555Z" transform="translate(-677.274 -109.751)"/>
      <path id="Subtraction_7" data-name="Subtraction 7" class="cls-29" d="M9.647,19.979A13.112,13.112,0,0,1,6.973,19.7a8.586,8.586,0,0,1-5.263-3.429A11.042,11.042,0,0,1,.039,9.165a11.518,11.518,0,0,1,.6-3.081,8.956,8.956,0,0,1,1.5-2.739A8.989,8.989,0,0,1,8.124.13,15.855,15.855,0,0,1,10.114,0,10.84,10.84,0,0,1,14.64.9a7.842,7.842,0,0,1,2.354,1.651,8.18,8.18,0,0,1,1.632,2.373,12.438,12.438,0,0,1,.911,6.01,10,10,0,0,1-2,5.542A8.837,8.837,0,0,1,12.312,19.7,12.977,12.977,0,0,1,9.647,19.979Zm.22-16.255c-.125,0-.252,0-.376.012A4.9,4.9,0,0,0,6.467,4.926,5.9,5.9,0,0,0,4.708,8.9a8.755,8.755,0,0,0,.7,4.77,4.633,4.633,0,0,0,1.178,1.48,4.445,4.445,0,0,0,1.681.873,6.505,6.505,0,0,0,1.64.212,5.732,5.732,0,0,0,2.08-.376,4.134,4.134,0,0,0,2.24-2.2A9.5,9.5,0,0,0,14.867,9,6.087,6.087,0,0,0,13.3,5.027a4.266,4.266,0,0,0-1.583-.988A5.483,5.483,0,0,0,9.867,3.725Z" transform="translate(127.7 15.913)"/>
      <path id="Path_4846" data-name="Path 4846" class="cls-29" d="M1185.777,125.973a12.033,12.033,0,0,1,6.3.658v4.188a8.073,8.073,0,0,0-4.783-1.417,2.468,2.468,0,0,0-2.176,1.2,1.968,1.968,0,0,0,.658,2.328c1.291.86,2.834,1.227,4.175,2.012a6.021,6.021,0,0,1,2.606,2.48,5.558,5.558,0,0,1-1.189,6.415,8.714,8.714,0,0,1-6.339,1.923,13.577,13.577,0,0,1-4.631-1.063c.013-1.468-.013-2.935.013-4.4a9.921,9.921,0,0,0,4.137,1.784,5.368,5.368,0,0,0,3.151-.291,1.824,1.824,0,0,0,.544-2.594,5.648,5.648,0,0,0-1.986-1.3,19.563,19.563,0,0,1-3.935-2.012,4.727,4.727,0,0,1-1.708-2.581,5.764,5.764,0,0,1,.633-4.542,6.742,6.742,0,0,1,4.529-2.784Z" transform="translate(-1031.051 -109.892)"/>
      <path id="Subtraction_6" data-name="Subtraction 6" class="cls-29" d="M9.591,19.973a11.151,11.151,0,0,1-4.1-.733A8.481,8.481,0,0,1,.858,14.748,12.607,12.607,0,0,1,.137,8.131a10.062,10.062,0,0,1,.97-3.2A8.355,8.355,0,0,1,3.148,2.286,9.471,9.471,0,0,1,8.2.122,16.07,16.07,0,0,1,10.135,0a10.58,10.58,0,0,1,4.818,1.046,8.08,8.08,0,0,1,3.909,4.428,12.279,12.279,0,0,1,.708,4.542,11.773,11.773,0,0,1-.49,3.421,9.3,9.3,0,0,1-1.572,3.07,8.354,8.354,0,0,1-2.489,2.165A9.3,9.3,0,0,1,11.9,19.784,14.719,14.719,0,0,1,9.591,19.973ZM9.865,3.738c-.146,0-.295.005-.442.015a4.626,4.626,0,0,0-3.34,1.594,6.443,6.443,0,0,0-1.38,3.8,9.064,9.064,0,0,0,.545,4.15,4.64,4.64,0,0,0,2.4,2.518,5.568,5.568,0,0,0,2.22.434,7.007,7.007,0,0,0,1.044-.08,4.274,4.274,0,0,0,2.657-1.429,5.893,5.893,0,0,0,1.177-2.8,11.589,11.589,0,0,0-.038-4.074,5.251,5.251,0,0,0-1.645-3.037,4.153,4.153,0,0,0-1.5-.835A5.564,5.564,0,0,0,9.865,3.738Z" transform="translate(163.952 15.908)"/>
      <path id="Path_4848" data-name="Path 4848" class="cls-29" d="M926.632,127.307a5.1,5.1,0,0,1,4.226-.354c-.013,1.518,0,3.037,0,4.555a4.8,4.8,0,0,0-3.074-.721,3.792,3.792,0,0,0-2.847,2.277,8.318,8.318,0,0,0-.645,3.884v9.11H919.8V127.029c1.493-.025,3-.013,4.492,0-.013,1.088,0,2.176,0,3.264a5.782,5.782,0,0,1,2.341-2.986Z" transform="translate(-803.423 -110.631)"/>
      <path id="Path_4849" data-name="Path 4849" class="cls-29" d="M715.5,129.443c1.506,0,3.024-.025,4.53.013-.013,6.339,0,12.69-.013,19.029H715.5V129.443Z" transform="translate(-624.972 -113.058)"/>
      <path id="Path_4853" data-name="Path 4853" class="cls-30" d="M0,183.5H21.066v21.066H0V183.5Z" transform="translate(0 -160.283)"/>
      <path id="Path_4854" data-name="Path 4854" class="cls-31" d="M183.5,183.5h21.066v21.066H183.5V183.5Z" transform="translate(-160.283 -160.283)"/>
    </g>
    <g id="Group_1009" data-name="Group 1009" transform="translate(1252.528 3496.383)">
      <path id="Path_4822" data-name="Path 4822" class="cls-32" d="M58.946,41.9H94.936l-1.212,5.615H90.852c-3.127,0-5.3.255-6.445.766a7.133,7.133,0,0,0-3.063,2.808c-.83,1.276-1.149,3.956-2.489,7.593L58.563,115.41a8.6,8.6,0,0,0-.574,3,2.107,2.107,0,0,0,.893,1.85c5.615,3.765,29.544,2.3,34.2-2.552,6.126-6.253,12.252-19.717,13.081-21.249l5.743,2.489L97.871,127.789H28.7l1.149-5.552H32.72c3,0,8.423-.191,9.444-.7a7.639,7.639,0,0,0,3.318-2.871c.83-1.276,1.276-3.573,2.425-6.636L67.625,57.853a16.007,16.007,0,0,0,.7-5.424,4.717,4.717,0,0,0-.766-2.808,4.436,4.436,0,0,0-2.106-1.6,17.57,17.57,0,0,0-5.1-.51H57.734L58.946,41.9Z" transform="translate(-24.744 -25.564)"/>
      <path id="Path_4823" data-name="Path 4823" class="cls-32" d="M22.5,16.3H56.064v5.552H53.512a25.967,25.967,0,0,0-4.467.255A3.89,3.89,0,0,0,47,23.383a3.254,3.254,0,0,0-.7,1.978,15.373,15.373,0,0,0,1.34,5.1L73.549,94.149,98.754,30.594a14.912,14.912,0,0,0,1.276-5.1,3.1,3.1,0,0,0-1.276-2.744c-.893-.574-4.722-.83-7.466-.83H88.225V16.3h28.523v5.552c-10.274-.128-9.508,2.552-11.933,8.678L74.123,108.187h-9.38L33.858,30.594a36.437,36.437,0,0,0-2.106-4.722,8.831,8.831,0,0,0-2.106-2.233A7.76,7.76,0,0,0,26.9,22.362a16.363,16.363,0,0,0-4.4-.447V16.3Z" transform="translate(-22.5 -16.3)"/>
    </g>
    <g id="Group_1010" data-name="Group 1010" transform="translate(533.5 3737.875)">
      <path id="Path_4871" data-name="Path 4871" d="M102.364,208a2.482,2.482,0,1,0,2.564,2.48A2.438,2.438,0,0,0,102.364,208Zm0,4.236a1.721,1.721,0,0,1-1.784-1.756,1.783,1.783,0,1,1,3.567,0A1.721,1.721,0,0,1,102.364,212.236Z" transform="translate(-71.993 -150.037)"/>
      <path id="Path_4872" data-name="Path 4872" d="M118.921,49.657H106.409l1.421-21.736L99.721,49.657H88.1L106.548.5h12.345l-1.421,22.043L125.748.5h11.621Z" transform="translate(-63.553 -0.361)"/>
      <path id="Path_4873" data-name="Path 4873" d="M204.1,49.657,222.548.5h11.621L215.721,49.657Z" transform="translate(-147.228 -0.361)"/>
      <path id="Path_4874" data-name="Path 4874" d="M23.224,108.569c-16.219,19.061-31.545,44.42-18,56.1,13.1,11.314,29.483,4.626,40.658.139,11.175-4.459,134.626-58.075,134.626-58.075,1.2-.585.975-1.338-.529-.975-.613.139-134.4,36.422-134.4,36.422C28.575,146.942,9.235,136.576,23.224,108.569Z" transform="translate(-0.015 -76.216)"/>
      <path id="Path_4875" data-name="Path 4875" d="M106.777,213.6a.617.617,0,0,0,.641-.7c0-.641-.418-.808-1.115-.808h-1v2.675h.669v-1.143h.111l.613,1.143h.78Zm-.446-.418h-.39v-.613h.334c.2,0,.418.028.418.279C106.693,213.131,106.582,213.187,106.331,213.187Z" transform="translate(-75.96 -152.994)"/>
      <path id="Path_4876" data-name="Path 4876" d="M521.364,0A2.438,2.438,0,0,0,518.8,2.48a2.565,2.565,0,0,0,5.128,0A2.438,2.438,0,0,0,521.364,0Zm0,4.236A1.721,1.721,0,0,1,519.58,2.48a1.783,1.783,0,1,1,3.567,0A1.721,1.721,0,0,1,521.364,4.236Z" transform="translate(-374.23)"/>
      <path id="Path_4877" data-name="Path 4877" d="M525.777,5.6a.617.617,0,0,0,.641-.7c0-.641-.418-.808-1.115-.808h-1V6.775h.669V5.633h.112l.613,1.143h.78Zm-.446-.418h-.39V4.574h.334c.2,0,.418.028.418.279C525.693,5.131,525.582,5.187,525.331,5.187Z" transform="translate(-378.197 -2.957)"/>
      <path id="Path_4878" data-name="Path 4878" d="M322.115,8.693,325.236.5H289.789L277.612,15.242,283.241.5h-11.76L253.2,49.63h11.621l7.8-20.538.529,20.538,35.642-.084,3.4-9.447H298.651l4.459-11.9h11.175l3.428-9.168H306.537l3.818-10.339h11.76ZM284.69,46.369l-.752-25.61L301.494,1.475Z" transform="translate(-182.645 -0.361)"/>
    </g>
    <g id="Group_1011" data-name="Group 1011" transform="translate(1196.36 3752.582)">
      <g id="Group_674" data-name="Group 674" transform="translate(0 0)">
        <g id="Group_673" data-name="Group 673" transform="translate(0 0)">
          <g id="Group_671" data-name="Group 671" class="cls-33">
            <path id="Path_4856" data-name="Path 4856" class="cls-34" d="M19.14,66.453s41.721,8.774,60.087-60.9L12.215,0,0,39.614Z" transform="translate(-20.947 -15.613)"/>
          </g>
          <g id="Group_672" data-name="Group 672" class="cls-33">
            <path id="Path_4858" data-name="Path 4858" class="cls-35" d="M59.031,100.786c.215-4.043,18.28-6.968,20.99-7.527,10.151-2.108,23.355-3.742,29.42-13.248,5.549-8.688,4.688-21.033,4.086-30.753L118.861,49l12.516,40.947L119.42,122.894s-30.323,11.957-31.1,11.957c-.817,0-30.022-19.14-30.022-19.14S58.988,100.915,59.031,100.786Z" transform="translate(-54.171 -43.537)"/>
          </g>
        </g>
      </g>
      <g id="Group_676" data-name="Group 676" transform="translate(109.766 19.312)">
        <g id="Group_675" data-name="Group 675">
          <path id="Path_4860" data-name="Path 4860" class="cls-36" d="M319,106.061c-6.495.043-11.828-4.516-12.172-10.151,9.248-2.065,14.753,3.828,24.13,1.505a25.638,25.638,0,0,1,3.054-.344c0-.3.172-1.462.172-1.763,0-7.785-6.8-14.108-15.14-14.108-8.387,0-15.14,6.323-15.14,14.108s6.8,14.108,15.14,14.108c6.538,0,12.688-4.473,14.452-9.893l-3.269.086C328.159,103.136,325.062,105.975,319,106.061Zm0-21.506c6.022,0,11.054,3.871,12.043,8.989-9.2,2.323-14.753-3.14-23.7-1.419C308.889,87.738,313.535,84.555,319,84.555Z" transform="translate(-303.9 -81.2)"/>
        </g>
      </g>
      <g id="Group_677" data-name="Group 677" transform="translate(75.744 19.312)">
        <path id="Path_4861" data-name="Path 4861" class="cls-12" d="M245.227,110.506c6.753,0,12.215-4.817,12.215-10.753S251.98,89,245.227,89c-5.333,0-9.85,3.011-11.527,7.226v7.054C235.334,107.5,239.894,110.506,245.227,110.506Z" transform="translate(-229.872 -85.645)"/>
        <path id="Path_4862" data-name="Path 4862" class="cls-36" d="M240.2,81.2c-7.957,0-15.613,5.032-15.312,13.291l.86-3.441,2.925.215v.516c1.634-4.215,6.194-7.226,11.527-7.226,6.753,0,12.215,4.817,12.215,10.753s-5.463,10.753-12.215,10.753c-5.333,0-9.85-3.011-11.527-7.226v5.419a14.914,14.914,0,0,0,11.527,5.118c8.387,0,15.14-6.323,15.14-14.108C255.341,87.523,248.545,81.2,240.2,81.2Z" transform="translate(-224.846 -81.2)"/>
        <path id="Path_4863" data-name="Path 4863" class="cls-36" d="M224.843,112.1l-.043.129v22.323h3.785V121.821a15.943,15.943,0,0,1-3.656-8.473A11.365,11.365,0,0,1,224.843,112.1Z" transform="translate(-224.8 -98.809)"/>
        <path id="Path_4864" data-name="Path 4864" class="cls-36" d="M228,108.358a9.716,9.716,0,0,1,.688-3.527v-.516l-2.925-.215-.86,3.441a12.151,12.151,0,0,0,.086,1.247,16.323,16.323,0,0,0,3.656,8.473v-5.419A9.294,9.294,0,0,1,228,108.358Z" transform="translate(-224.857 -94.25)"/>
      </g>
      <g id="Group_678" data-name="Group 678" transform="translate(143.53 19.312)">
        <path id="Path_4865" data-name="Path 4865" class="cls-12" d="M402.827,110.506c6.753,0,12.215-4.817,12.215-10.753S409.58,89,402.827,89c-5.333,0-9.85,3.011-11.527,7.226v7.054C392.977,107.5,397.494,110.506,402.827,110.506Z" transform="translate(-387.472 -85.645)"/>
        <path id="Path_4866" data-name="Path 4866" class="cls-36" d="M397.8,81.2c-7.957,0-15.613,5.032-15.312,13.291l.86-3.441,2.925.215v.516c1.677-4.215,6.194-7.226,11.527-7.226,6.753,0,12.215,4.817,12.215,10.753s-5.462,10.753-12.215,10.753c-5.333,0-9.85-3.011-11.527-7.226v5.419a14.914,14.914,0,0,0,11.527,5.118c8.387,0,15.14-6.323,15.14-14.108C412.984,87.523,406.188,81.2,397.8,81.2Z" transform="translate(-382.445 -81.2)"/>
        <path id="Path_4867" data-name="Path 4867" class="cls-36" d="M382.443,112.1l-.043.129v22.323h3.785V121.821a15.943,15.943,0,0,1-3.656-8.473C382.486,112.96,382.486,112.53,382.443,112.1Z" transform="translate(-382.4 -98.809)"/>
        <path id="Path_4868" data-name="Path 4868" class="cls-36" d="M385.668,108.452a9.922,9.922,0,0,1,.7-3.6v-.528l-2.992-.22-.88,3.517a12.416,12.416,0,0,0,.088,1.275,16.678,16.678,0,0,0,3.74,8.661l.044-5.4A11.309,11.309,0,0,1,385.668,108.452Z" transform="translate(-382.5 -94.391)"/>
      </g>
      <rect id="Rectangle_1129" data-name="Rectangle 1129" class="cls-36" width="3.785" height="27.269" transform="translate(201.08 19.656)"/>
      <path id="Path_4869" data-name="Path 4869" class="cls-36" d="M519.608,64.654a3.054,3.054,0,1,1-3.054-3.054A3.066,3.066,0,0,1,519.608,64.654Z" transform="translate(-313.581 -50.718)"/>
      <g id="Group_679" data-name="Group 679" transform="translate(175.66 19.57)">
        <path id="Path_4870" data-name="Path 4870" class="cls-36" d="M459.9,103.392a11.926,11.926,0,0,0,8.086,2.882c3.785,0,6.925-1.634,6.925-4.86,0-6.581-16.99-2.753-16.99-11.957,0-4.817,5.118-7.656,10.667-7.656,3.914,0,6.538,1.29,9.635,3.1l-2.108,2.409a14.471,14.471,0,0,0-7.7-2.452c-3.656,0-6.753,1.462-6.753,4.43,0,6.581,16.99,2.237,16.99,11.957,0,5.506-5.2,8.043-11.484,8.043a14.662,14.662,0,0,1-10.065-3.957Z" transform="translate(-457.1 -81.8)"/>
      </g>
    </g>
    <g id="Group_1012" data-name="Group 1012" transform="translate(861.543 3771.869)">
      <path id="Path_4880" data-name="Path 4880" class="cls-37" d="M138.127,84.8H133.8v25.964h19.972l2.774-4.216H138.127V84.8Z" transform="translate(11.553 -84.689)"/>
      <path id="Path_4881" data-name="Path 4881" class="cls-37" d="M86.634,86.133,71.1,110.876h5.1l4.66-7.434h10.1l2.663-4.216h-10.1l5.437-8.544,12.871,20.305h5.1L91.294,86.022h0a2.751,2.751,0,0,0-4.66.111Z" transform="translate(4.683 -84.69)"/>
      <path id="Path_4882" data-name="Path 4882" class="cls-37" d="M113.583,89.016h17.864L134.11,84.8H113.472c-7.212,0-11.872,5.77-11.872,12.982s4.771,12.982,11.872,12.982h17.42l2.774-4.216H113.583c-4.882,0-7.656-3.883-7.656-8.766-.111-4.771,2.774-8.766,7.656-8.766Z" transform="translate(8.025 -84.689)"/>
      <path id="Path_4883" data-name="Path 4883" class="cls-37" d="M33.2,84.8H14.783C7.571,84.8,2.8,90.57,2.8,97.782s4.771,12.982,11.872,12.982H33.091c7.212,0,11.872-5.77,11.872-12.982C45.074,90.57,40.3,84.8,33.2,84.8Zm0,21.747H14.783c-4.882,0-7.656-3.883-7.656-8.766s2.885-8.766,7.656-8.766H33.2c4.882,0,7.656,3.883,7.656,8.766s-2.885,8.766-7.656,8.766Z" transform="translate(-2.8 -84.689)"/>
      <path id="Path_4884" data-name="Path 4884" class="cls-37" d="M166.383,89.016h17.864L186.91,84.8H166.272c-7.212,0-11.872,5.77-11.872,12.982s4.771,12.982,11.872,12.982h17.42l2.774-4.216H166.383c-4.105,0-6.768-2.885-7.434-6.657h22.524l2.663-4.216H158.949c.666-3.772,3.329-6.657,7.434-6.657Z" transform="translate(13.81 -84.689)"/>
      <path id="Path_4885" data-name="Path 4885" class="cls-37" d="M64.837,100.234a7.767,7.767,0,0,0,0-15.534H43.2v25.964h4.771V89.027H64.837a3.44,3.44,0,0,1,0,6.879H51.3l15.312,14.757h6.1l-10.874-10.43Z" transform="translate(1.626 -84.7)"/>
    </g>
    <path id="Path_6749" data-name="Path 6749" class="cls-38" d="M207.222,16.417C204.331.207,155.7-4.852,98.5,5.06,74.547,9.293,52.864,15.488,35.932,22.405c2.581.1,4.543.619,5.679,1.858a4.993,4.993,0,0,1,1.342,3.717v1.652H37.377V28.187a2,2,0,0,0-3.923-.516,2.112,2.112,0,0,0,0,1.136c.619,2.478,8.879,3.923,9.809,8.466a10.041,10.041,0,0,1,0,3.614c-.516,3.614-3.717,5.059-7.847,5.059-5.679,0-8.053-2.684-8.053-6.4V37.79H33.35v2.168a1.924,1.924,0,0,0,2.065,1.962,1.874,1.874,0,0,0,2.065-1.445,2.633,2.633,0,0,0,0-1.549c-1.136-2.788-8.879-4.13-9.809-8.57a9.609,9.609,0,0,1-.1-2.994,5.442,5.442,0,0,1,.516-1.549C9.6,34.486-1.341,44.088.1,52.451,2.995,68.661,51.625,73.72,108.722,63.705c25.09-4.336,47.7-10.944,64.944-18.275h-.723c-3.923,0-7.434-1.445-7.744-5.472a8.435,8.435,0,0,1-.1-1.445V29.323a6.349,6.349,0,0,1,.1-1.445c.413-3.82,3.51-5.472,7.744-5.472,3.3,0,7.331.929,7.744,5.472a2.8,2.8,0,0,1,0,1.342h0v.826h-5.679V28.91h0a3.321,3.321,0,0,0-.1-.826,1.979,1.979,0,0,0-2.065-1.549,1.9,1.9,0,0,0-2.065,1.549,2.877,2.877,0,0,0-.1,1.032V39.958c0,.206.31,1.549,2.168,1.549s2.168-1.342,2.168-1.549c0-.31.1-.619.1-.826v-3.1H172.84v-3.3h7.847v5.885a8.434,8.434,0,0,1-.1,1.445,5.555,5.555,0,0,1-.929,2.684C198.033,34.073,208.564,24.574,207.222,16.417ZM58.956,45.12,56.065,25.606h-.1L53.071,45.12H46.979l4.027-21.992h9.912L64.945,45.12Zm29.013,0-.1-19.1h-.1l-3.51,19.1H78.574l-3.51-19.1h-.1l-.1,19.1H69.178l.516-21.992H78.78l2.684,16.313h.1l2.684-16.313h9.086l.516,21.992ZM114.5,40.784c-.619,4.233-4.749,4.956-7.744,4.956-4.853,0-7.95-2.065-7.95-6.4V37.583H104.8v2.168a1.85,1.85,0,0,0,2.065,1.858c1.136,0,1.858-.413,2.065-1.445a3.9,3.9,0,0,0,0-1.549c-1.136-2.788-8.776-4.13-9.705-8.57a9.07,9.07,0,0,1-.1-2.891c.619-4.027,4.543-4.853,7.64-4.853,2.788,0,4.853.619,5.988,1.858a4.993,4.993,0,0,1,1.342,3.717v1.549h-5.575V27.981a1.718,1.718,0,0,0-1.962-1.858,1.829,1.829,0,0,0-1.962,1.445,4.011,4.011,0,0,0,0,1.136c.619,2.478,8.879,3.923,9.705,8.466A7.253,7.253,0,0,1,114.5,40.784Zm20.547-1.962a5.906,5.906,0,0,1-.1,1.445c-.31,3.614-2.891,5.472-7.64,5.472s-7.331-1.858-7.744-5.472c0-.206-.1-1.032-.1-1.445v-15.8h5.679V40.061A1.89,1.89,0,0,0,127.2,41.61a1.979,1.979,0,0,0,2.065-1.549V23.025h5.679C135.051,23.025,135.051,38.822,135.051,38.822Zm24.47,5.988h-7.95l-5.266-17.449h-.1l.31,17.449h-5.472V23.025h8.26l4.956,16.726h.1l-.31-16.726h5.575V44.811Z" transform="translate(1533.337 3750.492)"/>
    <rect id="Rectangle_1459" data-name="Rectangle 1459" class="cls-14" width="61" height="982" transform="translate(1792 2946.176)"/>
    <rect id="Rectangle_1460" data-name="Rectangle 1460" class="cls-14" width="61" height="982" transform="translate(68 2946.176)"/>
    <rect id="Rectangle_1461" data-name="Rectangle 1461" class="cls-14" width="61" height="1705" transform="translate(1822.5 3897.676) rotate(90)"/>
    <rect id="Rectangle_1462" data-name="Rectangle 1462" class="cls-14" width="61" height="1705" transform="translate(1822.5 2906.676) rotate(90)"/>
    <text id="Our_Clients" data-name="Our Clients" class="cls-39" transform="translate(962.5 2929)"><tspan x="-156.703" y="0">Our Clients</tspan></text>
  </g>
</svg>
