<svg id="youtube3" xmlns="http://www.w3.org/2000/svg" viewBox="0 0 22.306 22.3">
  <defs>
    <style>
      .cls-1 {
        fill: #333;
      }
    </style>
  </defs>
  <path id="Path_1344" data-name="Path 1344" class="cls-1" d="M7.016,0,5.509,2.989,4,0H2.08L4.8,4.732l.016-.009V8.362H6.207V4.723l.016.009L8.939,0Z" transform="translate(-0.629)"/>
  <path id="Path_1345" data-name="Path 1345" class="cls-1" d="M14.091,3.394a.706.706,0,0,1,.7.7V6.878a.7.7,0,0,1-1.394,0V4.091A.706.706,0,0,1,14.091,3.394Zm0-1.394A2.1,2.1,0,0,0,12,4.091V6.878a2.091,2.091,0,0,0,4.182,0V4.091A2.1,2.1,0,0,0,14.091,2Z" transform="translate(-3.635 -0.606)"/>
  <path id="Path_1346" data-name="Path 1346" class="cls-1" d="M22.788,2V7.487c-.609.507-1.394.813-1.394-.994V2H20V6.776h0c.022,1.152.264,3.226,2.786,1.54v.652h1.394V2H22.788Z" transform="translate(-6.058 -0.606)"/>
  <path id="Path_1347" data-name="Path 1347" class="cls-1" d="M26.7,22a.7.7,0,0,0-.7.7v.7h1.394v-.7A.7.7,0,0,0,26.7,22Z" transform="translate(-7.876 -6.669)"/>
  <path id="Path_1348" data-name="Path 1348" class="cls-1" d="M18,22.814v3.659c.472.472,1.394.523,1.394-.174V23.032c0-.7-.7-.915-1.394-.218Z" transform="translate(-5.452 -6.786)"/>
  <path id="Path_1349" data-name="Path 1349" class="cls-1" d="M22.191,16.908a2.9,2.9,0,0,0-2.85-2.794c-1.52-.076-5-.114-8.054-.114s-6.781.038-8.3.114A2.965,2.965,0,0,0,1,14.943a2.962,2.962,0,0,0-.866,1.965C.044,18.544,0,19.137,0,19.955S.044,22,.136,23.635A2.965,2.965,0,0,0,1,25.6a2.964,2.964,0,0,0,1.984.829c1.52.076,5.245.114,8.3.114s6.533-.038,8.054-.114a2.9,2.9,0,0,0,2.85-2.794q.114-2.045.114-3.681c0-1.091-.038-1.684-.114-3.047ZM4.182,25.15H2.788V18.181H1.394V16.787H5.576v1.394H4.182Zm5.576,0H8.364V24.5c-2.65,1.487-2.764.048-2.786-1.1h0V19.575H6.97v3.84c0,.842.786.76,1.394.254V19.575H9.758Zm5.576-1.414c0,1.456-1.492,1.882-2.788.749v.665H11.152V16.787h1.394v2.265c1.394-1.394,2.788-.871,2.788.523Zm5.576-2.767v.7H18.123v1.394a.7.7,0,0,0,1.394,0v-.7h1.394v.7a2.091,2.091,0,0,1-4.182,0V20.272a2.091,2.091,0,0,1,4.182,0Z" transform="translate(0.001 -4.244)"/>
</svg>
